<?xml version="1.0" encoding="utf-8"?>
<!-- Generator: Adobe Illustrator 26.0.1, SVG Export Plug-In . SVG Version: 6.00 Build 0)  -->
<svg version="1.1" id="Ebene_1" xmlns="http://www.w3.org/2000/svg" xmlns:xlink="http://www.w3.org/1999/xlink" x="0px" y="0px"
	 viewBox="0 0 32 32" style="enable-background:new 0 0 32 32;" xml:space="preserve">
<style type="text/css">
	.st0{fill:#0DBABA;}
	.st1{fill:#FFFFFF;}
	.st2{fill-rule:evenodd;clip-rule:evenodd;fill:#FFFFFF;}
	.st3{fill:none;stroke:#FFFFFF;stroke-miterlimit:10;}
</style>
<g>
	<g>
		<circle class="st0" cx="16" cy="16" r="15"/>
		<path class="st1" d="M16,2c7.7,0,14,6.3,14,14s-6.3,14-14,14S2,23.7,2,16S8.3,2,16,2 M16,0C7.2,0,0,7.2,0,16s7.2,16,16,16
			s16-7.2,16-16S24.8,0,16,0z"/>
		<path class="st2" d="M26.3,21.6c-0.3-0.3-0.6-0.6-1-0.9c-0.7-0.6-1.8-1.4-3-2.2c-1.2-0.8-3-2-4.1-2.7c-0.1-1.3-0.2-3.3-0.3-4.9
			c-0.1-1.6-0.3-2.8-0.4-3.8c-0.1-0.4-0.2-0.9-0.3-1.3c-0.2-0.6-0.5-1-1.2-1c-0.7,0-0.9,0.4-1.1,1.1c-0.1,0.4-0.2,0.9-0.3,1.3
			c-0.1,0.9-0.3,2.2-0.4,3.8s-0.2,3.6-0.3,4.9c-1.1,0.7-2.8,1.8-4.1,2.7s-2.3,1.6-3,2.2c-0.4,0.3-0.7,0.6-1,0.9
			c-0.5,0.5-0.7,0.9-0.3,1.5c0.4,0.6,0.8,0.6,1.5,0.5c0.4-0.1,0.9-0.2,1.3-0.4c0.9-0.3,2.1-0.9,3.4-1.5s3.2-1.6,4.4-2.2
			c1.2,0.6,2.9,1.5,4.4,2.2s2.6,1.2,3.5,1.5c0.4,0.2,0.9,0.3,1.3,0.4c0.7,0.1,1.1,0.1,1.5-0.5S26.7,22.2,26.3,21.6z M16,18.3
			c-0.7,0-1.3-0.6-1.3-1.3s0.6-1.3,1.3-1.3c0.7,0,1.3,0.6,1.3,1.3l0,0C17.3,17.8,16.7,18.3,16,18.3z"/>
	</g>
	<path class="st3" d="M1.6,18.1c0,0,7.3-5,14.8-6.5c10.3-2,14.2-0.7,14.2-0.7"/>
</g>
</svg>
