<svg id="Ebene_1" data-name="Ebene 1" xmlns="http://www.w3.org/2000/svg" viewBox="0 0 500.09 500"><defs><style>.cls-1{fill:#fff;}</style></defs><path id="home" class="cls-1" d="M486.53,217.47h0l-204-204a46,46,0,0,0-65.08,0h0L13.58,217.32l-.21.21A46,46,0,0,0,44,296h9.54v150.1a54,54,0,0,0,53.87,53.86h79.81a14.64,14.64,0,0,0,14.65-14.64V367.68a24.6,24.6,0,0,1,24.57-24.57h47.05a24.6,24.6,0,0,1,24.57,24.57V485.35A14.65,14.65,0,0,0,312.71,500h79.78a53.94,53.94,0,0,0,53.89-53.86V296h7.54a46,46,0,0,0,32.66-78.56Z" transform="translate(0.05 0)"/></svg>