<?xml version="1.0" encoding="UTF-8" standalone="no"?>
<!-- Generator: Adobe Illustrator 26.0.1, SVG Export Plug-In . SVG Version: 6.00 Build 0)  -->

<svg
   version="1.1"
   id="Ebene_1"
   x="0px"
   y="0px"
   viewBox="0 0 32 32"
   style="enable-background:new 0 0 32 32;"
   xml:space="preserve"
   sodipodi:docname="EA-Icons_Ladeinfrastrucktur.svg"
   inkscape:version="1.1 (c68e22c387, 2021-05-23)"
   xmlns:inkscape="http://www.inkscape.org/namespaces/inkscape"
   xmlns:sodipodi="http://sodipodi.sourceforge.net/DTD/sodipodi-0.dtd"
   xmlns="http://www.w3.org/2000/svg"
   xmlns:svg="http://www.w3.org/2000/svg"><defs
   id="defs25">
		
		
		
		
		
	</defs><sodipodi:namedview
   id="namedview23"
   pagecolor="#ffffff"
   bordercolor="#666666"
   borderopacity="1.0"
   inkscape:pageshadow="2"
   inkscape:pageopacity="0.0"
   inkscape:pagecheckerboard="0"
   showgrid="false"
   inkscape:zoom="18.384776"
   inkscape:cx="20.09815"
   inkscape:cy="19.989365"
   inkscape:window-width="1920"
   inkscape:window-height="1017"
   inkscape:window-x="-8"
   inkscape:window-y="-8"
   inkscape:window-maximized="1"
   inkscape:current-layer="g20" />
<style
   type="text/css"
   id="style2">
	.st0{fill:#09588E;}
	.st1{fill:#FFFFFF;}
</style>
<g
   id="g20">
	<circle
   class="st0"
   cx="16"
   cy="16"
   id="ellipse4"
   r="16" /><path
   class="st1"
   d="M 25,9.2 H 24.5 V 7.7 c 0,-0.3 -0.2,-0.5 -0.5,-0.5 -0.3,0 -0.5,0.2 -0.5,0.5 0,0 0,0 0,0 v 1.6 h -1 V 7.7 c 0,-0.3 -0.2,-0.5 -0.5,-0.5 -0.3,0 -0.5,0.2 -0.5,0.5 0,0 0,0 0,0 V 9.2 H 21 c -0.3,0 -0.5,0.2 -0.5,0.5 v 0 2 c 0,0.8 0.7,1.5 1.5,1.5 h 0.5 v 6.6 c 0,0.3 -0.2,0.5 -0.5,0.5 -0.3,0 -0.5,-0.2 -0.5,-0.5 v -3 C 21.5,16 20.8,15.3 20,15.3 h -1.5 v -1 H 9.3 v 7.1 h 9.1 v -5 H 20 c 0.3,0 0.5,0.2 0.5,0.5 v 3 c 0.1,0.8 0.8,1.5 1.6,1.4 0.7,-0.1 1.3,-0.7 1.4,-1.4 V 13.3 H 24 c 0.8,0 1.5,-0.7 1.5,-1.5 v -2 C 25.5,9.4 25.3,9.2 25,9.2 Z"
   id="path6" /><path
   class="st1"
   d="M 18.4,22.4 H 9.3 c -0.6,0 -1,0.5 -1,1 v 0 0.5 c 0,0.3 0.2,0.5 0.5,0.5 h 10.1 c 0.3,0 0.5,-0.2 0.5,-0.5 v -0.5 c 0,-0.6 -0.4,-1 -1,-1 0,0 0,0 0,0 z"
   id="path8" /><path
   class="st1"
   d="M 16.9,7.2 H 10.8 C 10,7.2 9.3,7.9 9.3,8.7 v 4.5 h 9.1 V 8.7 c 0,-0.8 -0.6,-1.5 -1.5,-1.5 z m 0,4.5 c 0,0.3 -0.2,0.5 -0.5,0.5 H 11.3 C 11,12.2 10.8,12 10.8,11.7 v 0 -2 c 0,-0.3 0.2,-0.5 0.5,-0.5 h 5.1 c 0.3,0 0.5,0.2 0.5,0.5 v 0 z"
   id="path10" /><rect
   x="11.8"
   y="10.2"
   class="st1"
   width="4.0999999"
   height="1"
   id="rect12" />
	<path
   class="st1"
   d="M 16,2 C 23.7,2 30,8.3 30,16 30,23.7 23.7,30 16,30 8.3,30 2,23.7 2,16 2,8.3 8.3,2 16,2 M 16,0 C 7.2,0 0,7.2 0,16 0,24.8 7.2,32 16,32 24.8,32 32,24.8 32,16 32,7.2 24.8,0 16,0 Z"
   id="path16"
   style="display:none"
   sodipodi:insensitive="true" />
	<path
   class="st0"
   d="M 16.6,17.4 16,17.3 C 16,17.2 15.9,17.1 15.9,17 l 0.3,-0.5 c 0,-0.1 0,-0.1 0,-0.2 l -0.4,-0.5 c 0,-0.1 -0.1,-0.1 -0.2,0 L 15,16.1 C 14.9,16 14.8,16 14.7,16 l -0.1,-0.6 c 0,-0.1 -0.1,-0.1 -0.1,-0.1 h -0.6 c -0.1,0 -0.1,0.1 -0.1,0.1 0,0 -0.1,0.4 -0.1,0.6 -0.1,0 -0.2,0.1 -0.4,0.1 l -0.5,-0.3 c -0.1,0 -0.1,0 -0.2,0 L 12,16.3 c -0.1,0.1 -0.1,0.1 0,0.2 l 0.3,0.5 c -0.1,0.1 -0.1,0.2 -0.1,0.3 l -0.6,0.1 c -0.1,0 -0.1,0.1 -0.1,0.1 v 0.6 c 0,0.1 0,0.1 0.1,0.1 l 0.6,0.1 c 0,0.1 0.1,0.2 0.1,0.3 L 12,19.3 c 0,0.1 0,0.1 0,0.2 l 0.4,0.4 c 0.1,0.1 0.1,0.1 0.2,0 l 0.5,-0.3 c 0.1,0.1 0.2,0.1 0.3,0.1 l 0.1,0.6 c 0,0.1 0.1,0.1 0.1,0.1 h 0.6 c 0.1,0 0.1,0 0.1,-0.1 l 0.1,-0.6 c 0.1,0 0.2,-0.1 0.3,-0.1 l 0.5,0.3 c 0.1,0 0.1,0 0.2,0 l 0.4,-0.4 c 0.1,-0.1 0.1,-0.1 0,-0.2 l -0.3,-0.5 c 0.1,-0.1 0.1,-0.2 0.1,-0.3 l 0.6,-0.1 c 0.1,0 0.1,-0.1 0.1,-0.1 v -0.6 c 0.4,-0.2 0.4,-0.3 0.3,-0.3 z M 14.1,19 C 13.5,19 13,18.5 13,17.9 c 0,-0.6 0.5,-1.1 1.1,-1.1 0.6,0 1.1,0.5 1.1,1.1 v 0 C 15.1,18.5 14.7,19 14.1,19 Z"
   id="path18" />
</g>
</svg>
