<svg id="Ebene_1" data-name="Ebene 1" xmlns="http://www.w3.org/2000/svg" viewBox="0 0 491.16 500">
	<defs>
		<style>.cls-1{fill:#fff;}</style>
	</defs>
	<g id="map">
		<g id="Gruppe_45" data-name="Gruppe 45">
			<g id="Gruppe_44" data-name="Gruppe 44">
				<path id="Pfad_41" data-name="Pfad 41" class="cls-1" d="M429.41,470.6,232.73,366.47a15.79,15.79,0,0,0-16.27.94L66.07,471.53A15.63,15.63,0,0,0,75,500H422.06a15.61,15.61,0,0,0,7.4-29.41Z" transform="translate(-4.42 0)"/>
			</g>
		</g>
		<g id="Gruppe_47" data-name="Gruppe 47">
			<g id="Gruppe_46" data-name="Gruppe 46">
				<path id="Pfad_42" data-name="Pfad 42" class="cls-1" d="M495.21,440.92,449,232.7a15.63,15.63,0,0,0-24.16-9.47L274.37,327.36A15.61,15.61,0,0,0,276,354L472.66,458.1A15.56,15.56,0,0,0,480,460a15.37,15.37,0,0,0,9.46-3.22A15.67,15.67,0,0,0,495.21,440.92Z" transform="translate(-4.42 0)"/>
			</g>
		</g>
		<g id="Gruppe_49" data-name="Gruppe 49">
			<g id="Gruppe_48" data-name="Gruppe 48">
				<path id="Pfad_43" data-name="Pfad 43" class="cls-1" d="M386.41,198.48a15.68,15.68,0,0,0-14.94-11H228.84a652.44,652.44,0,0,1-80.1,109.44,46.87,46.87,0,0,1-66.18,3.58A50.38,50.38,0,0,1,79,296.94c-6.09-6.79-15.52-17.63-26.33-31.06L14.83,436.08a15.63,15.63,0,0,0,11.86,18.64,16.07,16.07,0,0,0,3.39.37A15.53,15.53,0,0,0,39,452.31L380.32,216A15.57,15.57,0,0,0,386.41,198.48Z" transform="translate(-4.42 0)"/>
			</g>
		</g>
		<g id="Gruppe_51" data-name="Gruppe 51">
			<g id="Gruppe_50" data-name="Gruppe 50">
				<path id="Pfad_44" data-name="Pfad 44" class="cls-1" d="M113.86,0A109.44,109.44,0,0,0,4.42,109.44c0,56.19,87.76,155.53,97.75,166.69a15.63,15.63,0,0,0,22.06,1.2,16.84,16.84,0,0,0,1.19-1.2c10-11.15,97.75-110.57,97.75-166.69A109.43,109.43,0,0,0,113.86,0Zm0,156.26a46.88,46.88,0,1,1,46.88-46.88h0A46.91,46.91,0,0,1,113.86,156.26Z" transform="translate(-4.42 0)"/>
			</g>
		</g>
	</g>
</svg>