<svg id="Ebene_1" data-name="Ebene 1" xmlns="http://www.w3.org/2000/svg" viewBox="0 0 500 488.35"><defs><style>.cls-1{fill:#fff;}</style></defs><path class="cls-1" d="M490.85,50a22.74,22.74,0,0,0-20.1-3.54L348.5,83.1V494.18l135.31-40.63A22.74,22.74,0,0,0,500,431.78V68.21A22.73,22.73,0,0,0,490.85,50Z" transform="translate(0 -5.82)"/><path class="cls-1" d="M261.68,48.71,197,9.86v416.7L303,490.19V73.52L261.68,48.74Z" transform="translate(0 -5.82)"/><path class="cls-1" d="M0,68.18V431.82a22.73,22.73,0,0,0,29.27,21.76L151.52,416.9V5.82L16.19,46.42A22.71,22.71,0,0,0,0,68.18Z" transform="translate(0 -5.82)"/></svg>