<?xml version="1.0" encoding="UTF-8" standalone="no"?>
<svg
   xmlns:dc="http://purl.org/dc/elements/1.1/"
   xmlns:cc="http://creativecommons.org/ns#"
   xmlns:rdf="http://www.w3.org/1999/02/22-rdf-syntax-ns#"
   xmlns:svg="http://www.w3.org/2000/svg"
   xmlns="http://www.w3.org/2000/svg"
   viewBox="0 0 666.66669 666.66669"
   height="666.66669"
   width="666.66669"
   xml:space="preserve"
   id="svg2"
   version="1.1"><metadata
     id="metadata8"><rdf:RDF><cc:Work
         rdf:about=""><dc:format>image/svg+xml</dc:format><dc:type
           rdf:resource="http://purl.org/dc/dcmitype/StillImage" /></cc:Work></rdf:RDF></metadata><defs
     id="defs6"><clipPath
       id="clipPath18"
       clipPathUnits="userSpaceOnUse"><path
         id="path16"
         d="M 0,500 H 500 V 0 H 0 Z" /></clipPath></defs><g
     transform="matrix(1.3333333,0,0,-1.3333333,0,666.66667)"
     id="g10"><g
       id="g12"><g
         clip-path="url(#clipPath18)"
         id="g14"><g
           transform="translate(500,250)"
           id="g20"><path
             id="path22"
             style="fill:#005e90;fill-opacity:1;fill-rule:nonzero;stroke:none"
             d="m 0,0 c 0,-138.071 -111.929,-250 -250,-250 -138.071,0 -250,111.929 -250,250 0,138.071 111.929,250 250,250 C -111.929,250 0,138.071 0,0" /></g><g
           transform="translate(385.0197,162.45)"
           id="g24"><path
             id="path26"
             style="fill:#ffffff;fill-opacity:1;fill-rule:nonzero;stroke:none"
             d="M 0,0 C -10.721,0 -20.584,-3.146 -28.39,-8.394 L -53.02,7.081 C -57.3,1.536 -62.525,-3.559 -68.61,-8.05 l 26.106,-16.401 c -2.073,-4.411 -3.224,-9.213 -3.224,-14.242 0,-21.335 20.513,-38.693 45.728,-38.693 25.214,0 45.728,17.358 45.728,38.693 C 45.728,-17.358 25.214,0 0,0 Z" /></g><g
           transform="translate(116.279,239.836)"
           id="g28"><path
             id="path30"
             style="fill:#ffffff;fill-opacity:1;fill-rule:nonzero;stroke:none"
             d="M 0,0 C 12.054,0 23.025,3.973 31.203,10.445 L 48.957,1.149 c 3.697,5.956 8.412,11.497 14.051,16.461 L 43.822,27.658 c 1.234,3.499 1.906,7.201 1.906,11.035 0,21.335 -20.514,38.693 -45.728,38.693 -25.214,0 -45.728,-17.358 -45.728,-38.693 C -45.728,17.358 -25.214,0 0,0" /></g><g
           transform="translate(169.3025,169.5266)"
           id="g32"><path
             id="path34"
             style="fill:#ffffff;fill-opacity:1;fill-rule:nonzero;stroke:none"
             d="m 0,0 -24.631,-15.472 c -7.807,5.249 -17.67,8.395 -28.393,8.395 -25.214,0 -45.728,-17.357 -45.728,-38.693 0,-21.335 20.514,-38.693 45.728,-38.693 25.215,0 45.729,17.358 45.729,38.693 0,5.029 -1.152,9.831 -3.224,14.242 l 26.106,16.402 C 9.504,-10.636 4.279,-5.543 0,0" /></g><g
           transform="translate(322.007,257.4498)"
           id="g36"><path
             id="path38"
             style="fill:#ffffff;fill-opacity:1;fill-rule:nonzero;stroke:none"
             d="m 0,0 c 5.641,-4.965 10.356,-10.508 14.055,-16.465 l 17.755,9.296 c 8.177,-6.471 19.149,-10.445 31.203,-10.445 25.214,0 45.728,17.358 45.728,38.693 0,21.336 -20.514,38.693 -45.728,38.693 -25.215,0 -45.728,-17.357 -45.728,-38.693 0,-3.832 0.671,-7.534 1.904,-11.033 z" /></g><g
           transform="translate(301.2739,246.8057)"
           id="g40"><path
             id="path42"
             style="fill:#ffffff;fill-opacity:1;fill-rule:nonzero;stroke:none"
             d="M 0,0 C -0.788,0.526 -1.594,1.034 -2.41,1.532 L -23.727,-32.81 c -12.383,-19.95 -41.412,-19.95 -53.796,0 L -98.839,1.532 c -0.816,-0.498 -1.622,-1.006 -2.41,-1.532 -14.989,-9.993 -23.244,-23.711 -23.244,-38.628 0,-14.916 8.255,-28.635 23.244,-38.627 13.673,-9.116 31.651,-14.136 50.624,-14.136 18.973,0 36.952,5.02 50.625,14.136 14.989,9.992 23.244,23.711 23.244,38.627 C 23.244,-23.711 14.989,-9.993 0,0" /></g><g
           transform="translate(250.6493,403.0503)"
           id="g44"><path
             id="path46"
             style="fill:#ffffff;fill-opacity:1;fill-rule:nonzero;stroke:none"
             d="m 0,0 c 21.335,0 38.693,-17.358 38.693,-38.693 0,-21.335 -17.358,-38.693 -38.693,-38.693 -21.335,0 -38.693,17.358 -38.693,38.693 C -38.693,-17.358 -21.335,0 0,0 m -8.966,-177.925 c 4.127,-6.65 13.804,-6.65 17.932,0 l 59.851,96.427 C 102.307,-27.543 63.504,42.211 0,42.211 c -63.504,0 -102.306,-69.754 -68.817,-123.709 z" /></g><g
           transform="translate(250.6493,381.945)"
           id="g48"><path
             id="path50"
             style="fill:#ffffff;fill-opacity:1;fill-rule:nonzero;stroke:none"
             d="m 0,0 c 9.713,0 17.588,-7.874 17.588,-17.588 0,-9.713 -7.875,-17.587 -17.588,-17.587 -9.713,0 -17.588,7.874 -17.588,17.587 C -17.588,-7.874 -9.713,0 0,0" /></g></g></g></g></svg>