<?xml version="1.0" encoding="UTF-8" standalone="no"?>
<svg
   xmlns:dc="http://purl.org/dc/elements/1.1/"
   xmlns:cc="http://creativecommons.org/ns#"
   xmlns:rdf="http://www.w3.org/1999/02/22-rdf-syntax-ns#"
   xmlns:svg="http://www.w3.org/2000/svg"
   xmlns="http://www.w3.org/2000/svg"
   viewBox="0 0 666.66669 666.66669"
   height="666.66669"
   width="666.66669"
   xml:space="preserve"
   id="svg2"
   version="1.1"><metadata
     id="metadata8"><rdf:RDF><cc:Work
         rdf:about=""><dc:format>image/svg+xml</dc:format><dc:type
           rdf:resource="http://purl.org/dc/dcmitype/StillImage" /></cc:Work></rdf:RDF></metadata><defs
     id="defs6"><clipPath
       id="clipPath18"
       clipPathUnits="userSpaceOnUse"><path
         id="path16"
         d="M 0,500 H 500 V 0 H 0 Z" /></clipPath></defs><g
     transform="matrix(1.3333333,0,0,-1.3333333,0,666.66667)"
     id="g10"><g
       id="g12"><g
         clip-path="url(#clipPath18)"
         id="g14"><g
           transform="translate(500,250)"
           id="g20"><path
             id="path22"
             style="fill:#f2b700;fill-opacity:1;fill-rule:nonzero;stroke:none"
             d="m 0,0 c 0,-138.071 -111.929,-250 -250,-250 -138.071,0 -250,111.929 -250,250 0,138.071 111.929,250 250,250 C -111.929,250 0,138.071 0,0" /></g><g
           transform="translate(324.0154,92.7253)"
           id="g24"><path
             id="path26"
             style="fill:#ffffff;fill-opacity:1;fill-rule:nonzero;stroke:none"
             d="m 0,0 h -28.504 l -3.972,16.283 h -83.079 L -119.527,0 h -28.504 c -6.131,0 -11.102,-4.971 -11.102,-11.102 0,-6.132 4.971,-11.103 11.102,-11.103 H 0 c 6.131,0 11.102,4.971 11.102,11.103 C 11.102,-4.971 6.131,0 0,0" /></g><g
           transform="translate(169.6866,212.6302)"
           id="g28"><path
             id="path30"
             style="fill:#ffffff;fill-opacity:1;fill-rule:nonzero;stroke:none"
             d="M 0,0 H 69.211 V 59.212 H 7.402 Z" /></g><g
           transform="translate(238.8977,190.4255)"
           id="g32"><path
             id="path34"
             style="fill:#ffffff;fill-opacity:1;fill-rule:nonzero;stroke:none"
             d="m 0,0 h -71.987 l -7.401,-59.212 H 0 Z" /></g><g
           transform="translate(261.1023,190.4255)"
           id="g36"><path
             id="path38"
             style="fill:#ffffff;fill-opacity:1;fill-rule:nonzero;stroke:none"
             d="M 0,0 V -59.212 H 79.388 L 71.987,0 Z" /></g><g
           transform="translate(261.1023,212.6302)"
           id="g40"><path
             id="path42"
             style="fill:#ffffff;fill-opacity:1;fill-rule:nonzero;stroke:none"
             d="M 0,0 H 69.211 L 61.81,59.212 H 0 Z" /></g><g
           transform="translate(409.5364,263.4328)"
           id="g44"><path
             id="path46"
             style="fill:#ffffff;fill-opacity:1;fill-rule:nonzero;stroke:none"
             d="m 0,0 c -1.235,4.942 -5.676,8.41 -10.771,8.41 h -53.477 l 7.402,-59.213 h 69.547 z" /></g><g
           transform="translate(439.1426,145.0082)"
           id="g48"><path
             id="path50"
             style="fill:#ffffff;fill-opacity:1;fill-rule:nonzero;stroke:none"
             d="m 0,0 -11.355,45.417 h -72.322 l 7.401,-59.212 h 65.505 C -3.548,-13.795 1.752,-7.007 0,0" /></g><g
           transform="translate(60.8574,145.0082)"
           id="g52"><path
             id="path54"
             style="fill:#ffffff;fill-opacity:1;fill-rule:nonzero;stroke:none"
             d="m 0,0 c -1.752,-7.007 3.548,-13.795 10.771,-13.795 h 65.504 l 7.402,59.212 H 11.355 Z" /></g><g
           transform="translate(90.4635,263.4328)"
           id="g56"><path
             id="path58"
             style="fill:#ffffff;fill-opacity:1;fill-rule:nonzero;stroke:none"
             d="M 0,0 -12.7,-50.803 H 56.847 L 64.248,8.41 H 10.771 C 5.676,8.41 1.236,4.943 0,0" /></g><g
           transform="translate(181.9569,309.8109)"
           id="g60"><path
             id="path62"
             style="fill:#ffffff;fill-opacity:1;fill-rule:nonzero;stroke:none"
             d="m 0,0 c 1.286,-4.923 5.711,-8.362 10.762,-8.362 h 114.562 c 5.05,0 9.476,3.438 10.761,8.361 1.508,5.769 2.273,11.672 2.273,17.544 0,38.772 -31.543,70.315 -70.315,70.315 C 29.272,87.858 -2.272,56.315 -2.272,17.543 -2.272,11.671 -1.507,5.768 0,0 Z" /></g><g
           transform="translate(361.023,316.2517)"
           id="g64"><path
             id="path66"
             style="fill:#ffffff;fill-opacity:1;fill-rule:nonzero;stroke:none"
             d="M 0,0 C 6.131,0 11.102,4.971 11.102,11.102 11.102,17.234 6.131,22.205 0,22.205 h -19.172 c 0.437,-3.642 0.668,-7.346 0.668,-11.103 0,-3.702 -0.236,-7.41 -0.691,-11.102 z" /></g><g
           transform="translate(158.1491,338.4563)"
           id="g68"><path
             id="path70"
             style="fill:#ffffff;fill-opacity:1;fill-rule:nonzero;stroke:none"
             d="m 0,0 h -19.172 c -6.132,0 -11.103,-4.971 -11.103,-11.102 0,-6.132 4.971,-11.103 11.103,-11.103 H 0.023 c -0.455,3.692 -0.691,7.4 -0.691,11.103 0,3.757 0.231,7.46 0.668,11.102" /></g><g
           transform="translate(261.1023,419.2049)"
           id="g72"><path
             id="path74"
             style="fill:#ffffff;fill-opacity:1;fill-rule:nonzero;stroke:none"
             d="m 0,0 v 19.172 c 0,6.132 -4.971,11.103 -11.102,11.103 -6.132,0 -11.103,-4.971 -11.103,-11.103 V 0 c 3.642,0.437 7.346,0.668 11.103,0.668 C -7.345,0.668 -3.642,0.437 0,0" /></g><g
           transform="translate(322.7719,384.425)"
           id="g76"><path
             id="path78"
             style="fill:#ffffff;fill-opacity:1;fill-rule:nonzero;stroke:none"
             d="m 0,0 13.584,13.584 c 4.336,4.336 4.336,11.365 0,15.701 -4.336,4.336 -11.365,4.336 -15.701,0 L -15.701,15.701 C -9.863,11.113 -4.588,5.838 0,0" /></g><g
           transform="translate(177.2281,384.425)"
           id="g80"><path
             id="path82"
             style="fill:#ffffff;fill-opacity:1;fill-rule:nonzero;stroke:none"
             d="M 0,0 C 4.588,5.838 9.863,11.113 15.701,15.701 L 2.117,29.285 c -4.336,4.336 -11.365,4.336 -15.701,0 -4.336,-4.336 -4.336,-11.365 0,-15.701 z" /></g></g></g></g></svg>