<?xml version="1.0" encoding="UTF-8" standalone="no"?>
<svg
   xmlns:dc="http://purl.org/dc/elements/1.1/"
   xmlns:cc="http://creativecommons.org/ns#"
   xmlns:rdf="http://www.w3.org/1999/02/22-rdf-syntax-ns#"
   xmlns:svg="http://www.w3.org/2000/svg"
   xmlns="http://www.w3.org/2000/svg"
   viewBox="0 0 666.66669 666.66669"
   height="666.66669"
   width="666.66669"
   xml:space="preserve"
   id="svg2"
   version="1.1"><metadata
     id="metadata8"><rdf:RDF><cc:Work
         rdf:about=""><dc:format>image/svg+xml</dc:format><dc:type
           rdf:resource="http://purl.org/dc/dcmitype/StillImage" /></cc:Work></rdf:RDF></metadata><defs
     id="defs6"><clipPath
       id="clipPath18"
       clipPathUnits="userSpaceOnUse"><path
         id="path16"
         d="M 0,500 H 500 V 0 H 0 Z" /></clipPath></defs><g
     transform="matrix(1.3333333,0,0,-1.3333333,0,666.66667)"
     id="g10"><g
       id="g12"><g
         clip-path="url(#clipPath18)"
         id="g14"><g
           transform="translate(500,250)"
           id="g20"><path
             id="path22"
             style="fill:#0ca0d9;fill-opacity:1;fill-rule:nonzero;stroke:none"
             d="m 0,0 c 0,-138.071 -111.929,-250 -250,-250 -138.071,0 -250,111.929 -250,250 0,138.071 111.929,250 250,250 C -111.929,250 0,138.071 0,0" /></g><g
           transform="translate(250.0001,254.7393)"
           id="g24"><path
             id="path26"
             style="fill:#ffffff;fill-opacity:1;fill-rule:evenodd;stroke:none"
             d="m 0,0 c -11.638,0 -21.073,9.435 -21.073,21.073 0,11.638 9.435,21.073 21.073,21.073 11.638,0 21.073,-9.435 21.073,-21.073 C 21.073,9.435 11.638,0 0,0 m 164.905,-53.047 c -3.695,4.174 -9.042,9.075 -16.037,14.821 -11.886,9.762 -28.567,21.982 -48.868,35.983 -21.008,14.489 -47.573,31.9 -65.466,43.254 -0.886,21.174 -2.682,52.884 -4.725,78.322 -1.975,24.583 -4.217,45.14 -6.73,60.313 -1.478,8.931 -3.049,16.012 -4.815,21.3 -3.529,10.565 -7.715,16.808 -18.264,16.808 -10.548,0 -14.734,-6.242 -18.264,-16.808 -1.766,-5.288 -3.337,-12.369 -4.815,-21.3 -2.513,-15.173 -4.755,-35.731 -6.73,-60.313 -2.043,-25.438 -3.838,-57.148 -4.725,-78.322 -17.892,-11.354 -44.457,-28.765 -65.465,-43.254 -20.302,-14.001 -36.984,-26.22 -48.869,-35.983 -6.995,-5.746 -12.341,-10.647 -16.037,-14.821 -7.386,-8.339 -10.7,-15.085 -5.425,-24.221 5.274,-9.136 12.773,-9.639 23.688,-7.413 5.463,1.114 12.38,3.294 20.854,6.479 14.397,5.411 33.32,13.749 55.596,24.329 23.052,10.949 51.412,25.249 70.192,35.068 18.78,-9.819 47.14,-24.119 70.192,-35.068 22.275,-10.58 41.199,-18.918 55.596,-24.329 8.474,-3.185 15.391,-5.365 20.854,-6.479 10.915,-2.226 18.414,-1.723 23.688,7.413 5.275,9.136 1.96,15.882 -5.425,24.221" /></g><g
           transform="translate(290.9636,27.5063)"
           id="g28"><path
             id="path30"
             style="fill:#ffffff;fill-opacity:1;fill-rule:evenodd;stroke:none"
             d="m 0,0 -11.366,169.711 c -10.082,5.018 -20.26,10.17 -29.598,14.98 -9.338,-4.81 -19.515,-9.962 -29.597,-14.98 L -81.927,0 Z" /></g></g></g></g></svg>