<?xml version="1.0" encoding="utf-8"?>
<!-- Generator: Adobe Illustrator 26.0.1, SVG Export Plug-In . SVG Version: 6.00 Build 0)  -->
<svg version="1.1" id="Ebene_1" xmlns="http://www.w3.org/2000/svg" xmlns:xlink="http://www.w3.org/1999/xlink" x="0px" y="0px"
	 viewBox="0 0 32 32" style="enable-background:new 0 0 32 32;" xml:space="preserve">
<style type="text/css">
	.st0{fill:#003366;}
	.st1{fill:#FFFFFF;}
	.st2{fill-rule:evenodd;clip-rule:evenodd;fill:#FFFFFF;}
</style>
<g>
	<circle class="st0" cx="16" cy="16" r="15"/>
	<path class="st1" d="M16,2c7.7,0,14,6.3,14,14s-6.3,14-14,14S2,23.7,2,16S8.3,2,16,2 M16,0C7.2,0,0,7.2,0,16s7.2,16,16,16
		s16-7.2,16-16S24.8,0,16,0z"/>
	<path class="st2" d="M26.4,21.8c-0.3-0.3-0.5-0.5-0.9-0.8c-0.6-0.5-1.6-1.3-2.7-2c-1.1-0.7-2.7-1.8-3.7-2.4c-0.1-1.2-0.2-3-0.3-4.4
		c-0.1-1.4-0.3-2.5-0.4-3.4c-0.1-0.4-0.2-0.8-0.3-1.2c-0.2-0.5-0.4-0.9-1.1-0.9s-0.8,0.4-1,1c-0.1,0.4-0.2,0.8-0.3,1.2
		c-0.1,0.8-0.3,2-0.4,3.4s-0.2,3.2-0.3,4.4c-1,0.6-2.5,1.6-3.7,2.4c-1.2,0.8-2.1,1.4-2.7,2c-0.4,0.3-0.6,0.5-0.9,0.8
		c-0.4,0.4-0.6,0.8-0.3,1.3C8,23.8,8.4,23.8,9,23.7c0.4-0.1,0.8-0.2,1.2-0.4c0.8-0.3,1.9-0.8,3.1-1.3c1.2-0.5,2.9-1.4,4-2
		c1.1,0.5,2.6,1.3,4,2s2.3,1.1,3.1,1.3c0.4,0.2,0.8,0.3,1.2,0.4c0.6,0.1,1,0.1,1.3-0.4C27.2,22.7,26.7,22.4,26.4,21.8z M17.1,18.8
		c-0.6,0-1.2-0.5-1.2-1.2c0-0.6,0.5-1.2,1.2-1.2c0.6,0,1.2,0.5,1.2,1.2l0,0C18.3,18.4,17.7,18.8,17.1,18.8z"/>
	<path class="st1" d="M6,11.3c0.1-0.1,1.5-1.8,3.3,0c0.7,0.8,1.4,1,2,1c1.2,0,2-1,2.1-1c0.1-0.1,0.1-0.4,0-0.5
		c-0.1-0.1-0.3-0.1-0.4,0c-0.1,0.1-1.5,1.8-3.3,0c-2.2-2.3-4.1,0-4.1,0c-0.1,0.1-0.1,0.4,0,0.5C5.7,11.5,5.9,11.5,6,11.3L6,11.3z"/>
	<path class="st1" d="M7.1,9.2c0,0,0.9-1.1,2,0c0.5,0.5,0.9,0.6,1.2,0.6c0.7,0,1.3-0.6,1.3-0.6c0.1-0.1,0.1-0.2,0-0.3
		c-0.1-0.1-0.2-0.1-0.2,0c0,0-0.9,1.1-2,0c-1.4-1.4-2.5,0-2.5,0c-0.1,0.1-0.1,0.2,0,0.3C6.9,9.2,7,9.2,7.1,9.2L7.1,9.2z"/>
</g>
</svg>
