<?xml version="1.0" encoding="UTF-8" standalone="no"?>
<!-- Generator: Adobe Illustrator 26.0.1, SVG Export Plug-In . SVG Version: 6.00 Build 0)  -->

<svg
   version="1.1"
   id="Ebene_1"
   x="0px"
   y="0px"
   viewBox="0 0 32 32"
   style="enable-background:new 0 0 32 32;"
   xml:space="preserve"
   sodipodi:docname="EA-Icons_Verkehr.svg"
   inkscape:version="1.1 (c68e22c387, 2021-05-23)"
   xmlns:inkscape="http://www.inkscape.org/namespaces/inkscape"
   xmlns:sodipodi="http://sodipodi.sourceforge.net/DTD/sodipodi-0.dtd"
   xmlns="http://www.w3.org/2000/svg"
   xmlns:svg="http://www.w3.org/2000/svg"><defs
   id="defs15">
	
	
	
</defs><sodipodi:namedview
   id="namedview13"
   pagecolor="#ffffff"
   bordercolor="#666666"
   borderopacity="1.0"
   inkscape:pageshadow="2"
   inkscape:pageopacity="0.0"
   inkscape:pagecheckerboard="0"
   showgrid="false"
   inkscape:zoom="26"
   inkscape:cx="15.980769"
   inkscape:cy="16.019231"
   inkscape:window-width="1920"
   inkscape:window-height="1017"
   inkscape:window-x="-8"
   inkscape:window-y="-8"
   inkscape:window-maximized="1"
   inkscape:current-layer="Ebene_1" />
<style
   type="text/css"
   id="style2">
	.st0{fill:#17377F;}
	.st1{fill:#FFFFFF;}
</style>
<circle
   class="st0"
   cx="16"
   cy="16"
   r="16"
   id="circle4" /><path
   class="st1"
   d="M 23.2,15.1 C 23.2,14.9 22.1,9.4 22.1,9.2 22,8.9 21.8,8.7 21.5,8.7 H 10.1 C 9.8,8.7 9.5,8.9 9.5,9.2 l -1.1,5.9 c -0.7,0.5 -1.1,1.3 -1.1,2.2 v 2.9 c 0,0.6 0.5,1 1,1 v 0 h 0.5 v 1.3 c 0.1,0.8 0.8,1.4 1.6,1.4 0.7,-0.1 1.3,-0.6 1.4,-1.4 v -1.3 h 8.1 v 1.3 c 0,0.8 0.7,1.5 1.5,1.5 0.8,0 1.5,-0.7 1.5,-1.5 v -1.3 h 0.5 c 0.6,0 1,-0.5 1,-1 v -2.9 c 0,-0.9 -0.5,-1.7 -1.2,-2.2 z m -13,4.4 c -0.8,0 -1.4,-0.6 -1.4,-1.4 0,-0.8 0.6,-1.4 1.4,-1.4 0.8,0 1.4,0.6 1.4,1.4 v 0 c 0,0.7 -0.6,1.4 -1.4,1.4 0,0 0,0 0,0 z M 19.7,12 h -3.2 c -0.8,0 -1.4,0.6 -1.4,1.4 v 1.1 c -5.5,0 -5.1,0 -5.3,0 L 10.7,9.8 H 17 c -0.1,0.2 -0.1,0.3 -0.1,0.5 0,0.7 0.6,1.2 1.2,1.2 0.7,0 1.2,-0.6 1.2,-1.2 0,-0.2 0,-0.4 -0.1,-0.5 H 21 l 0.9,4.7 H 21.2 V 13.4 C 21.1,12.7 20.4,12.1 19.7,12 Z m 1.7,7.5 C 20.6,19.5 20,18.9 20,18.1 v 0 0 c 0,-0.8 0.6,-1.4 1.4,-1.4 0.8,0 1.4,0.6 1.4,1.4 0,0.8 -0.6,1.4 -1.4,1.4 z"
   id="path6" />
</svg>
