<svg xmlns="http://www.w3.org/2000/svg" xmlns:xlink="http://www.w3.org/1999/xlink" version="1.1" x="0px" y="0px" viewBox="0 0 100 125" style="enable-background:new 0 0 100 100;" xml:space="preserve"><path d="M17,37h4v4h-4c-1.1,0-2-0.9-2-2C15,37.9,15.9,37,17,37z M15,71c0,1.1,0.9,2,2,2h4v-4h-4C15.9,69,15,69.9,15,71z M34,11h8v12  h6v-4c0-1.1,0.9-2,2-2s2,0.9,2,2v4h6V11h8c1.1,0,2-0.9,2-2c0-1.1-0.9-2-2-2H34c-1.1,0-2,0.9-2,2C32,10.1,32.9,11,34,11z M85,39  c0-1.1-0.9-2-2-2h-4v4h4C84.1,41,85,40.1,85,39z M83,69h-4v4h4c1.1,0,2-0.9,2-2C85,69.9,84.1,69,83,69z M35,91c0,1.1,0.9,2,2,2h26  c1.1,0,2-0.9,2-2v-4H35V91z M75,35v2h-6c-1.1,0-2,0.9-2,2c0,1.1,0.9,2,2,2h6v28h-6c-1.1,0-2,0.9-2,2c0,1.1,0.9,2,2,2h6v2  c0,4.4-3.6,8-8,8H33c-4.4,0-8-3.6-8-8v-2h6c1.1,0,2-0.9,2-2c0-1.1-0.9-2-2-2h-6V41h6c1.1,0,2-0.9,2-2c0-1.1-0.9-2-2-2h-6v-2  c0-4.4,3.6-8,8-8h34C71.4,27,75,30.6,75,35z M63,52c0-8.8-5.1-16.5-12.4-18.9c-0.4-0.1-0.8-0.1-1.2,0C42.1,35.5,37,43.2,37,52  c0,8.2,4.5,15.5,11,18.4V75c0,1.1,0.9,2,2,2s2-0.9,2-2v-4.6C58.5,67.5,63,60.2,63,52z M50,37.1c-5.3,2.1-9,8.1-9,14.9  c0,5.9,2.8,11.2,7,13.9V49c0-1.1,0.9-2,2-2s2,0.9,2,2v16.9c4.2-2.7,7-8,7-13.9C59,45.2,55.3,39.2,50,37.1z"/></svg>