<?xml version="1.0" encoding="UTF-8" standalone="no"?>
<svg
   xmlns:dc="http://purl.org/dc/elements/1.1/"
   xmlns:cc="http://creativecommons.org/ns#"
   xmlns:rdf="http://www.w3.org/1999/02/22-rdf-syntax-ns#"
   xmlns:svg="http://www.w3.org/2000/svg"
   xmlns="http://www.w3.org/2000/svg"
   xmlns:sodipodi="http://sodipodi.sourceforge.net/DTD/sodipodi-0.dtd"
   xmlns:inkscape="http://www.inkscape.org/namespaces/inkscape"
   data-name="Layer 1"
   viewBox="0 0 98.012794 92.22998"
   x="0px"
   y="0px"
   version="1.1"
   id="svg839"
   sodipodi:docname="noun_car_charging_station.svg"
   width="98.012794"
   height="92.22998"
   inkscape:version="1.0beta1 (32d4812, 2019-09-19)">
  <style
     id="style847"></style>
  <metadata
     id="metadata845">
    <rdf:RDF>
      <cc:Work
         rdf:about="">
        <dc:format>image/svg+xml</dc:format>
        <dc:type
           rdf:resource="http://purl.org/dc/dcmitype/StillImage" />
      </cc:Work>
    </rdf:RDF>
  </metadata>
  <defs
     id="defs843" />
  <sodipodi:namedview
     pagecolor="#ffffff"
     bordercolor="#666666"
     inkscape:document-rotation="0"
     borderopacity="1"
     objecttolerance="10"
     gridtolerance="10"
     guidetolerance="10"
     inkscape:pageopacity="0"
     inkscape:pageshadow="2"
     inkscape:window-width="1600"
     inkscape:window-height="1209"
     id="namedview841"
     showgrid="false"
     inkscape:zoom="1.1566861"
     inkscape:cx="146.8014"
     inkscape:cy="66.676132"
     inkscape:window-x="0"
     inkscape:window-y="23"
     inkscape:window-maximized="0"
     inkscape:current-layer="svg839" />
  <title
     id="title835">Artboard 16</title>
  <rect
     style="fill:#f9f9f9;stroke:#ffffff;stroke-width:0.669372"
     id="rect851"
     width="44.810425"
     height="58.201458"
     x="43.121525"
     y="13.246705"
     ry="0" />
  <path
     style="fill:#000080"
     id="path837"
     d="m 93.330012,82.889996 h -1.43 V 8.29 A 8.29,8.29 0 0 0 83.610014,0 H 46.610019 a 8.29,8.29 0 0 0 -8.29,8.29 v 30.13 h -5.73 a 14.52,14.52 0 0 0 -14.5,14.5 v 12.859996 a 3.59,3.59 0 1 1 -7.17,0 V 26.83 l 10.28,-10.29 a 5.46,5.46 0 0 0 -7.72,-7.72 L 1.6000207,20.71 A 5.42,5.42 0 0 0 2.0708556e-5,24.57 v 41.209996 a 14.500001,14.500001 0 0 0 28.999998291444,0 V 52.93 a 3.59,3.59 0 0 1 3.59,-3.59 h 5.76 v 33.549996 h -0.48 a 4.6700005,4.6700005 0 1 0 0,9.339966 h 55.459993 a 4.6700005,4.6700005 0 1 0 0,-9.339966 z M 77.080014,39.22 65.560019,61.219996 a 1.78,1.78 0 0 1 -3.34,-1.11 l 2.15,-12.999996 -9.18,-0.42 h -0.28 a 2.42,2.42 0 0 1 -1.74,-1.26 2.39,2.39 0 0 1 0,-2.15 l 11.51,-22 a 1.79,1.79 0 0 1 3.32,1.04 l -2.15,13 9.179995,0.42 h 0.28 a 2.42,2.42 0 0 1 1.69,1.37 2.38,2.38 0 0 1 0.08,2.11 z"
     inkscape:connector-curvature="0" />
</svg>
