<svg xmlns="http://www.w3.org/2000/svg" viewBox="0 0 64 80" x="0px" y="0px"><g><polygon points="29 22 4 22 4 26 18 26 18 56 22 56 22 26 29 26 29 22"/><ellipse cx="30" cy="41" rx="2" ry="3"/><path d="M4,56H16V28H4ZM6,38a1.889,1.889,0,0,1,.076-.374l.005-.019h0l3-7a1,1,0,0,1,1.838,0l3,7h0l.006.019A1.958,1.958,0,0,1,14,38v6a1,1,0,0,1-1,1H7a1,1,0,0,1-1-1Z"/><path d="M29,28H24V56H36V34H29Zm1,8c2.206,0,4,2.243,4,5a4.921,4.921,0,0,1-3,4.823V51H29V45.823A4.921,4.921,0,0,1,26,41C26,38.243,27.794,36,30,36Z"/><path d="M29,18H26V10h8v8H31v2h5V8H4V20H29ZM14,18H6V10h8Zm9,0H16V16h7Zm0-4H16V12h7Z"/><rect x="31" y="28" width="5" height="4"/><polygon points="10 33.539 8.517 37 11.483 37 10 33.539"/><rect x="28" y="12" width="4" height="4"/><rect x="8" y="39" width="4" height="4"/><path d="M44,32h9V42H51V34H44V56H60V28H44Zm1.919,21L52,45.4,58.081,53Z"/><rect x="38" y="34" width="4" height="22"/><polygon points="42 8 38 8 38 22 31 22 31 26 38 26 38 32 42 32 42 26 60 26 60 22 42 22 42 8"/><path d="M44,8V20H60V8Zm6,10H48V16h2Zm3-4H51V12h2Z"/><rect x="8" y="12" width="4" height="4"/><polygon points="50.081 51 53.919 51 52 48.601 50.081 51"/></g></svg>