<?xml version="1.0" encoding="UTF-8" standalone="no"?>
<svg
   xmlns:dc="http://purl.org/dc/elements/1.1/"
   xmlns:cc="http://creativecommons.org/ns#"
   xmlns:rdf="http://www.w3.org/1999/02/22-rdf-syntax-ns#"
   xmlns:svg="http://www.w3.org/2000/svg"
   xmlns="http://www.w3.org/2000/svg"
   xmlns:sodipodi="http://sodipodi.sourceforge.net/DTD/sodipodi-0.dtd"
   xmlns:inkscape="http://www.inkscape.org/namespaces/inkscape"
   inkscape:version="1.0beta1 (32d4812, 2019-09-19)"
   height="90.377998"
   width="94.166"
   sodipodi:docname="noun_Electric Car_309441.svg"
   id="svg847"
   xml:space="preserve"
   enable-background="new 0 0 101 101"
   viewBox="0 0 94.166 90.377998"
   y="0px"
   x="0px"
   version="1.1">
  <style
     id="style855"></style>
  <metadata
     id="metadata853">
    <rdf:RDF>
      <cc:Work
         rdf:about="">
        <dc:format>image/svg+xml</dc:format>
        <dc:type
           rdf:resource="http://purl.org/dc/dcmitype/StillImage" />
      </cc:Work>
    </rdf:RDF>
  </metadata>
  <defs
     id="defs851" />
  <sodipodi:namedview
     inkscape:current-layer="svg847"
     inkscape:window-maximized="0"
     inkscape:window-y="23"
     inkscape:window-x="0"
     inkscape:cy="172.00718"
     inkscape:cx="42.413186"
     inkscape:zoom="1.5010375"
     showgrid="false"
     id="namedview849"
     inkscape:window-height="1209"
     inkscape:window-width="1600"
     inkscape:pageshadow="2"
     inkscape:pageopacity="0"
     guidetolerance="10"
     gridtolerance="10"
     objecttolerance="10"
     borderopacity="1"
     inkscape:document-rotation="0"
     bordercolor="#666666"
     pagecolor="#ffffff" />
  <g
     transform="translate(-3.375,-1.478)"
     id="g841">
    <path
       inkscape:connector-curvature="0"
       id="path835"
       d="m 82.51,23.04 h 4.998 v 2.998 C 93.225,24.877 97.541,19.812 97.541,13.757 97.541,7.702 93.225,2.639 87.508,1.478 V 4.476 H 82.51 V 1.478 c -5.717,1.161 -10.033,6.225 -10.033,12.279 0,6.056 4.316,11.12 10.033,12.281 z m 5.027,-9.297 c 0,-1.369 1.109,-2.479 2.479,-2.479 1.37,0 2.48,1.109 2.48,2.479 0,1.37 -1.111,2.48 -2.48,2.48 -1.369,0 -2.479,-1.111 -2.479,-2.48 z m -10,0 c 0,-1.369 1.109,-2.479 2.479,-2.479 1.37,0 2.48,1.109 2.48,2.479 0,1.37 -1.111,2.48 -2.48,2.48 -1.369,0 -2.479,-1.111 -2.479,-2.48 z" />
    <path
       inkscape:connector-curvature="0"
       id="path837"
       d="m 93.471,36.096 h -1.076 v -5.15 c 0,-1.381 -1.119,-2.5 -2.5,-2.5 -1.135,0 -2.081,0.76 -2.387,1.795 -0.066,0.225 -0.113,0.458 -0.113,0.705 v 2.089 3.062 h -4.771 v -3.062 -2.089 c 0,-0.247 -0.047,-0.48 -0.113,-0.705 -0.307,-1.035 -1.253,-1.795 -2.387,-1.795 -1.381,0 -2.5,1.119 -2.5,2.5 v 5.15 h -1.076 c -1.381,0 -2.5,1.119 -2.5,2.5 v 3.556 c 0,5.185 3.623,9.53 8.467,10.664 v 0.312 c 0,5.62 -4.571,10.192 -10.191,10.192 -0.289,0 -0.563,0.06 -0.822,0.149 v -3.714 c 3,-0.465 4.875,-1.956 4.875,-4.376 0,-2.762 -1.363,-4.477 -4.125,-4.477 H 69.118 L 64.213,35.627 c -0.722,-2.166 -2.608,-4.006 -4.869,-4.319 -0.334,-0.046 -8.278,-1.27 -18.537,-1.27 -10.259,0 -18.203,1.02 -18.537,1.064 -2.261,0.314 -4.147,2.374 -4.869,4.54 l -4.916,15.26 H 9.25 c -2.762,0 -5.875,1.715 -5.875,4.477 0,2.762 2.125,4.476 4.125,4.476 v 6.501 8.5 c 0,2.467 1.576,4.564 4.014,4.941 0.079,0.012 0.986,0.064 0.986,0.145 v 6.914 c 0,2.762 2.238,5 5,5 2.762,0 5,-2.238 5,-5 v -5.781 c 5,0.42 10.562,0.781 16.666,0.781 5.918,0 12.334,-0.34 16.334,-0.742 v 5.742 c 0,2.762 2.238,5 5,5 2.762,0 5,-2.238 5,-5 v -6.832 c 1,-0.127 1.493,-0.211 1.597,-0.227 C 69.535,79.42 71.5,77.322 71.5,74.856 V 68.17 c 0.259,0.09 0.533,0.149 0.822,0.149 8.377,0 15.191,-6.815 15.191,-15.192 v -0.316 c 4.84,-1.137 8.457,-5.479 8.457,-10.66 v -3.556 c 0.001,-1.38 -1.118,-2.499 -2.499,-2.499 z M 18.77,70.247 c -2.471,0 -4.473,-2.004 -4.473,-4.473 0,-2.471 2.002,-4.474 4.473,-4.474 2.469,0 4.473,2.003 4.473,4.474 -10e-4,2.469 -2.005,4.473 -4.473,4.473 z M 49,73.986 H 32 c -1.381,0 -2.5,-1.119 -2.5,-2.5 0,-1.381 1.119,-2.5 2.5,-2.5 h 17 c 1.381,0 2.5,1.119 2.5,2.5 0,1.381 -1.119,2.5 -2.5,2.5 z M 40.805,50.855 c -9.79,0 -17.894,0.77 -22.745,1.371 L 23.092,37.05 c 0,0 7.75,-1.143 17.713,-1.143 9.963,0 17.713,1.143 17.713,1.143 l 4.865,14.672 h -0.001 l 0.151,0.457 C 58.559,51.586 50.487,50.855 40.805,50.855 Z m 21.648,19.392 c -2.469,0 -4.473,-2.004 -4.473,-4.473 0,-2.471 2.004,-4.474 4.473,-4.474 2.471,0 4.473,2.003 4.473,4.474 0,2.469 -2.002,4.473 -4.473,4.473 z" />
    <path
       inkscape:connector-curvature="0"
       id="path839"
       d="m 43.25,38.903 h -5 c -1.381,0 -2.5,1.119 -2.5,2.5 0,1.381 1.119,2.5 2.5,2.5 h 5 c 1.381,0 2.5,-1.119 2.5,-2.5 0,-1.381 -1.119,-2.5 -2.5,-2.5 z" />
  </g>
</svg>
