<?xml version="1.0" encoding="UTF-8" standalone="no"?>
<svg
   xmlns:dc="http://purl.org/dc/elements/1.1/"
   xmlns:cc="http://creativecommons.org/ns#"
   xmlns:rdf="http://www.w3.org/1999/02/22-rdf-syntax-ns#"
   xmlns:svg="http://www.w3.org/2000/svg"
   xmlns="http://www.w3.org/2000/svg"
   xmlns:sodipodi="http://sodipodi.sourceforge.net/DTD/sodipodi-0.dtd"
   xmlns:inkscape="http://www.inkscape.org/namespaces/inkscape"
   sodipodi:docname="estorage.svg"
   inkscape:version="1.0 (4035a4fb49, 2020-05-01)"
   width="17.206024"
   height="29.343903"
   viewBox="0 0 17.206024 29.343903"
   version="1.1"
   id="SVGRoot">
  <defs
     id="defs2217">
    <inkscape:path-effect
       effect="spiro"
       id="path-effect2189"
       is_visible="true"
       lpeversion="1" />
  </defs>
  <sodipodi:namedview
     inkscape:window-maximized="1"
     inkscape:window-y="-8"
     inkscape:window-x="1912"
     inkscape:window-height="1017"
     inkscape:window-width="1920"
     showgrid="true"
     inkscape:document-rotation="0"
     inkscape:current-layer="layer1"
     inkscape:document-units="px"
     inkscape:cy="19.563128"
     inkscape:cx="-7.4085044"
     inkscape:zoom="15.839192"
     inkscape:pageshadow="2"
     inkscape:pageopacity="0.0"
     borderopacity="1.0"
     bordercolor="#666666"
     pagecolor="#ffffff"
     id="base">
    <inkscape:grid
       originy="-0.49701784"
       originx="-4"
       type="xygrid"
       id="grid2787" />
  </sodipodi:namedview>
  <metadata
     id="metadata2220">
    <rdf:RDF>
      <cc:Work
         rdf:about="">
        <dc:format>image/svg+xml</dc:format>
        <dc:type
           rdf:resource="http://purl.org/dc/dcmitype/StillImage" />
        <dc:title></dc:title>
      </cc:Work>
    </rdf:RDF>
  </metadata>
  <g
     transform="translate(-4,-0.49701783)"
     id="layer1"
     inkscape:groupmode="layer"
     inkscape:label="Ebene 1">
    <rect
       style="fill:#000000;fill-opacity:1;stroke-width:0.311205"
       id="rect2213"
       width="17.119999"
       height="17.964203"
       x="4"
       y="11.876718" />
    <rect
       style="fill:#f7af00;stroke-width:0.311205"
       id="rect2182"
       width="17.206024"
       height="9.8767281"
       x="4"
       y="2" />
    <path
       style="fill:none;stroke:#000000;stroke-width:0.310717px;stroke-linecap:butt;stroke-linejoin:miter;stroke-opacity:1"
       d="m 12.775077,15.025827 -2.9250261,6.512925 h 2.6669361 l -0.17206,4.222654 3.269145,-6.011923 -2.236783,-0.143135 z"
       id="path2187"
       inkscape:original-d="m 12.775077,15.025827 -2.9250261,6.512925 h 2.6669361 l -0.17206,4.222654 3.269145,-6.011923 -2.236783,-0.143135 z"
       inkscape:path-effect="#path-effect2189" />
    <path
       style="fill:#f7af00;fill-opacity:1;stroke-width:0.0785916"
       d="m 13.031844,22.676103 c -0.05641,-0.122298 0.08247,-0.656037 0.203876,-0.783495 0.03749,-0.03936 0.02674,-0.217924 -0.02384,-0.396801 -0.07959,-0.281273 -0.139361,-0.343529 -0.44221,-0.460623 -0.528379,-0.204296 -0.676994,-0.233608 -0.878628,-0.173296 -0.101384,0.03033 -0.270257,0.03645 -0.375273,0.0136 -0.167146,-0.03637 -0.185282,-0.0766 -0.145568,-0.322932 0.02494,-0.154764 0.106719,-0.33779 0.181702,-0.40672 0.07499,-0.06893 0.136929,-0.235517 0.137655,-0.370191 0.0014,-0.275563 0.06418,-0.378997 0.267419,-0.441185 0.09236,-0.02825 0.177444,0.01593 0.251119,0.130468 0.06129,0.09527 0.162959,0.173212 0.225937,0.173212 0.06297,0 0.114507,0.03393 0.114507,0.07539 0,0.04147 0.217287,0.299119 0.482857,0.572564 0.549651,0.565951 0.792104,0.637789 0.953322,0.282465 0.05358,-0.118092 0.139495,-0.214714 0.19092,-0.214714 0.156453,0 0.10439,0.279931 -0.07596,0.408393 -0.107006,0.07622 -0.153025,0.175183 -0.124863,0.26852 0.04221,0.139945 -0.08066,0.426061 -0.354792,0.826068 -0.06744,0.09841 -0.12319,0.277986 -0.123886,0.399057 -0.0017,0.276506 -0.374764,0.614273 -0.464274,0.420224 z"
       id="path2191" />
    <path
       style="fill:#f7af00;fill-opacity:1;stroke-width:0.0785916"
       d="m 12.682417,23.05563 0.05064,-1.699799 H 11.44789 10.162716 l 1.214408,-2.718963 c 0.667926,-1.495429 1.235704,-2.719285 1.26173,-2.719679 0.02602,-2.83e-4 0.159239,0.866184 0.296032,1.925732 l 0.24871,1.926447 0.908392,0.05112 c 0.499615,0.02811 0.969235,0.07105 1.043601,0.09542 0.111045,0.03639 -0.08114,0.441224 -1.075378,2.265254 -0.665823,1.221522 -1.259604,2.300449 -1.319512,2.397612 -0.08951,0.145177 -0.0999,-0.126283 -0.05828,-1.523136 z m 0.813334,-0.716924 c 0.05103,-0.166625 0.187837,-0.48412 0.304027,-0.705544 0.116189,-0.221421 0.211251,-0.483185 0.211251,-0.581693 0,-0.0985 0.05807,-0.2192 0.129046,-0.268204 0.140656,-0.09712 0.178476,-0.429423 0.04887,-0.429423 -0.0441,0 -0.162847,0.09659 -0.263894,0.214648 -0.232614,0.271771 -0.368538,0.220617 -0.877245,-0.330141 -0.203637,-0.220469 -0.514284,-0.527864 -0.690327,-0.683104 -0.274278,-0.241864 -0.345063,-0.271128 -0.494672,-0.204517 -0.104795,0.04666 -0.174596,0.150108 -0.174596,0.258769 0,0.09957 -0.0804,0.336515 -0.178667,0.526551 -0.09827,0.190037 -0.166018,0.437557 -0.150552,0.550046 0.02606,0.189709 0.05304,0.203547 0.372235,0.190995 0.43251,-0.017 1.094297,0.155281 1.290999,0.336104 0.180953,0.166345 0.201191,0.626758 0.04631,1.053517 -0.06039,0.166391 -0.08653,0.352969 -0.0581,0.414616 0.0909,0.197059 0.383245,-0.0093 0.485307,-0.34262 z"
       id="path2193" />
    <path
       style="fill:#f7af00;fill-opacity:1;stroke-width:0.0785916"
       d="m 12.742776,22.912411 0.02081,-1.556733 -1.278149,7.6e-5 c -0.984929,6e-5 -1.269658,-0.02046 -1.241144,-0.08939 0.02034,-0.04921 0.556757,-1.244832 1.192016,-2.656951 0.98452,-2.188484 1.164508,-2.537126 1.219311,-2.361826 0.03536,0.113112 0.161736,0.944154 0.280831,1.846762 0.119096,0.902603 0.23211,1.654055 0.251143,1.669888 0.01904,0.01585 0.451482,0.0589 0.961007,0.0957 0.509521,0.03681 0.945572,0.08287 0.969003,0.102359 0.05719,0.04758 -0.196491,0.552751 -1.248686,2.486591 -1.273439,2.340452 -1.150572,2.289881 -1.12615,0.463514 z m 0.684246,-0.416285 c 0.08099,-0.135115 0.239281,-0.471111 0.351771,-0.746658 0.112487,-0.275545 0.252791,-0.613719 0.311787,-0.751489 0.059,-0.137775 0.1244,-0.314911 0.145333,-0.393639 0.03331,-0.125327 0.0278,-0.124012 -0.04437,0.01057 -0.04533,0.08454 -0.123855,0.175011 -0.174488,0.201042 -0.05063,0.02605 -0.09206,0.14134 -0.09206,0.256234 0,0.114899 -0.09353,0.378703 -0.207841,0.586235 -0.114316,0.207532 -0.250165,0.510877 -0.301892,0.674098 -0.108357,0.341922 -0.350568,0.483199 -0.350568,0.204482 0,-0.0958 0.05832,-0.317076 0.129592,-0.491724 0.107938,-0.264494 0.111532,-0.363561 0.0215,-0.592959 -0.08894,-0.226637 -0.189752,-0.309836 -0.569212,-0.469783 -0.374054,-0.157667 -0.532445,-0.186237 -0.838795,-0.151305 l -0.377664,0.04306 v -0.227994 c 0,-0.125395 0.05349,-0.314961 0.11887,-0.421258 0.06538,-0.106297 0.145698,-0.327619 0.178484,-0.491831 0.06928,-0.346993 0.270488,-0.454021 0.450838,-0.239815 0.06702,0.0796 0.167183,0.144743 0.222568,0.144743 0.05539,0 -0.0053,-0.08818 -0.134851,-0.195965 -0.18656,-0.155201 -0.265647,-0.180172 -0.380222,-0.120048 -0.178524,0.09368 -0.550428,1.060832 -0.52058,1.353787 0.02109,0.207028 0.04035,0.216309 0.538059,0.25937 1.149781,0.09948 1.396904,0.37192 1.148721,1.266393 -0.165633,0.596967 0.0787,0.788812 0.375007,0.294452 z m 0.497976,-1.784432 c 0,-0.03936 0.07743,-0.135983 0.172061,-0.21471 0.259769,-0.216108 0.08832,-0.171749 -0.18828,0.04871 l -0.240712,0.191854 -0.222711,-0.173962 c -0.122488,-0.09568 -0.362334,-0.326233 -0.532992,-0.512345 -0.170655,-0.186111 -0.327734,-0.323866 -0.349059,-0.306122 -0.04681,0.03895 0.34243,0.484605 0.703562,0.805538 0.247511,0.219964 0.658131,0.320437 0.658131,0.161033 z"
       id="path2195" />
    <path
       style="fill:#f7af00;fill-opacity:1;stroke-width:0.0785916"
       d="m 12.72438,22.912488 -0.0038,-1.556657 h -1.247436 c -0.686089,0 -1.247439,-0.01752 -1.247439,-0.03893 0,-0.0461 2.083499,-4.68111 2.264237,-5.037086 l 0.124393,-0.245 0.05163,0.209215 c 0.02837,0.115069 0.1525,0.94997 0.275786,1.855335 0.123285,0.905367 0.234668,1.655024 0.247518,1.665906 0.01284,0.01088 0.440711,0.05029 0.950808,0.08758 0.510096,0.03728 0.948301,0.08514 0.973789,0.106341 0.02548,0.0212 -0.04451,0.223349 -0.155553,0.449206 -0.295089,0.600194 -1.836287,3.439906 -2.048522,3.774466 l -0.181608,0.286283 -0.0038,-1.556659 z m 0.554785,-0.195997 c 0.03015,-0.04058 -0.0044,-0.05258 -0.08095,-0.02814 -0.100349,0.03204 -0.135992,-0.0082 -0.143494,-0.161853 -0.0063,-0.128864 -0.02491,-0.156615 -0.0503,-0.07505 -0.07656,0.245831 0.136388,0.451256 0.274737,0.265029 z m 0.385537,-0.716527 c 0.276236,-0.650031 0.291991,-0.709858 0.122505,-0.465208 -0.161276,0.232802 -0.500309,1.101367 -0.388471,0.995215 0.03756,-0.03564 0.157233,-0.27414 0.265966,-0.530007 z M 13.24532,21.659323 c -0.0017,-0.128306 -0.04456,-0.297285 -0.09488,-0.375511 -0.141702,-0.220268 -0.755735,-0.447434 -1.189826,-0.440184 -0.468362,0.0078 -0.600716,0.08278 -0.146164,0.08278 0.492344,0 0.982915,0.146747 1.179217,0.352746 0.147023,0.154285 0.168063,0.253446 0.130157,0.613455 -0.03631,0.344897 -0.02848,0.387161 0.03984,0.214712 0.04677,-0.118091 0.08352,-0.319688 0.08166,-0.447997 z m 0.982615,-0.983412 c 0.04922,-0.103493 0.0167,-0.09045 -0.117427,0.04707 -0.102031,0.104619 -0.18381,0.281755 -0.181732,0.393638 0.0037,0.201048 0.0051,0.200497 0.117426,-0.04707 0.06251,-0.137775 0.144287,-0.314911 0.181733,-0.393639 z m -0.22313,-0.08947 0.107424,-0.196818 -0.230996,0.178927 -0.230996,0.178925 -0.559472,-0.500992 c -0.30771,-0.275545 -0.472304,-0.392547 -0.365762,-0.260001 0.323022,0.401865 0.819061,0.796778 1.000806,0.796778 0.103773,0 0.214021,-0.07777 0.278996,-0.196819 z M 11.402864,20.48356 c -0.02745,-0.0571 -0.04785,-0.04013 -0.05197,0.04324 -0.0038,0.07544 0.01659,0.117721 0.04519,0.09394 0.02858,-0.02378 0.03164,-0.08551 0.0068,-0.137176 z m 0.275759,-0.630714 c -0.0031,-0.157444 -0.01741,-0.148848 -0.11945,0.07157 -0.154333,0.333398 -0.154333,0.51088 0,0.286282 0.06762,-0.09841 0.121374,-0.259443 0.11945,-0.357852 z m 0.783866,-0.239407 c 0,-0.01358 -0.08306,-0.08605 -0.184581,-0.161034 -0.183586,-0.135608 -0.184032,-0.135475 -0.08301,0.02469 0.08386,0.132947 0.267583,0.226562 0.267583,0.13634 z m -0.473165,-0.261588 c 0.02923,-0.03936 0.01444,-0.07157 -0.03287,-0.07157 -0.04731,0 -0.109959,0.03221 -0.139201,0.07157 -0.02923,0.03936 -0.01444,0.07157 0.03287,0.07157 0.04731,0 0.109955,-0.03221 0.139201,-0.07157 z"
       id="path2197" />
    <path
       style="fill:#f7af00;fill-opacity:1;stroke-width:0.0785916"
       d="m 12.721586,22.948273 -9.91e-4,-1.592442 h -1.247436 c -0.686089,0 -1.247439,-0.01956 -1.247439,-0.04342 0,-0.02389 0.529845,-1.221689 1.177434,-2.661794 0.950265,-2.113204 1.190204,-2.584662 1.243637,-2.443654 0.05989,0.158066 0.503954,3.199874 0.503954,3.45209 0,0.07807 0.15119,0.117483 0.580703,0.151375 1.435617,0.113286 1.418083,0.109217 1.356117,0.314614 -0.06296,0.208682 -1.05009,2.076472 -1.841969,3.485259 l -0.522988,0.930419 -9.91e-4,-1.592446 z m 0.450652,-0.208432 c -0.05915,-0.01986 -0.110596,-0.10588 -0.11433,-0.191168 -0.0038,-0.08529 -0.02674,-0.11375 -0.05113,-0.06325 -0.06279,0.130049 0.03216,0.302857 0.162762,0.296164 0.08635,-0.0045 0.08693,-0.01346 0.0027,-0.04175 z m 0.591525,-0.972481 c 0.0873,-0.186976 0.141746,-0.339958 0.120993,-0.339958 -0.06639,0 -0.390167,0.657906 -0.383116,0.778478 0.0057,0.09746 0.01458,0.09888 0.05509,0.0088 0.02657,-0.05905 0.119729,-0.260339 0.207027,-0.447317 z m -0.602648,-0.424588 c -0.113386,-0.248107 -0.729704,-0.490314 -1.220462,-0.479632 -0.413052,0.009 -0.354135,0.0288 0.299237,0.10063 0.576602,0.06339 0.905309,0.334191 0.925299,0.762296 0.01362,0.291596 0.01638,0.294815 0.04721,0.05515 0.01802,-0.139995 -0.005,-0.337297 -0.05129,-0.43844 z m 0.921991,-0.416365 c 0.08871,-0.227625 0.08594,-0.237813 -0.03025,-0.111568 -0.07032,0.07641 -0.127864,0.202552 -0.127864,0.280316 0,0.181427 0.03705,0.141878 0.158109,-0.168748 z m -0.08629,-0.357852 0.135397,-0.178927 -0.240685,0.178927 -0.240685,0.178925 -0.477308,-0.425745 c -0.262521,-0.234163 -0.435652,-0.360993 -0.384736,-0.281846 0.167694,0.260673 0.799578,0.752683 0.937423,0.729921 0.07436,-0.01227 0.196125,-0.102846 0.270594,-0.201255 z m -2.314272,-0.715704 c 3.4e-4,-0.09543 -0.0077,-0.09543 -0.07257,0 -0.04015,0.05904 -0.09866,0.187872 -0.130018,0.286281 l -0.05701,0.178924 0.129585,-0.178924 c 0.07127,-0.09841 0.129781,-0.227237 0.130016,-0.286281 z m 0.779938,-0.239407 c 0,-0.01358 -0.08306,-0.08605 -0.184581,-0.161034 -0.183585,-0.135608 -0.184031,-0.135475 -0.08301,0.02469 0.08386,0.132947 0.267583,0.226562 0.267583,0.13634 z"
       id="path2199" />
    <path
       style="fill:#f7af00;fill-opacity:1;stroke-width:0.0785916"
       d="m 12.725535,22.948273 -0.005,-1.592442 h -1.247436 c -0.686089,0 -1.247439,-0.0252 -1.247439,-0.05601 0,-0.07166 2.302639,-5.175718 2.354386,-5.218766 0.07355,-0.06119 0.129264,0.235132 0.359268,1.910954 0.126962,0.925048 0.255494,1.703431 0.285628,1.729736 0.03015,0.0263 0.455728,0.08073 0.945763,0.120943 0.490035,0.04021 0.913481,0.09185 0.940996,0.11473 0.07957,0.06621 -0.663033,1.504568 -2.18154,4.225438 l -0.199713,0.357855 -0.005,-1.592446 z m 0.978091,-1.091451 c 0.03998,-0.124349 0.03321,-0.14618 -0.02221,-0.07157 -0.04385,0.05904 -0.105623,0.187872 -0.137263,0.286281 -0.03998,0.124352 -0.03321,0.146183 0.02221,0.07157 0.04384,-0.05905 0.105619,-0.187874 0.137259,-0.286284 z m -0.466867,-0.174934 c 0,-0.166163 -0.07284,-0.311952 -0.223485,-0.447315 l -0.223484,-0.200809 0.180469,0.206469 c 0.09926,0.11356 0.180469,0.314851 0.180469,0.447318 0,0.132462 0.01935,0.240842 0.04302,0.240842 0.02368,0 0.04302,-0.110927 0.04302,-0.246505 z m 0.846347,-0.755481 c 0.08871,-0.227625 0.08594,-0.237813 -0.03025,-0.111568 -0.07032,0.07641 -0.127864,0.202552 -0.127864,0.280316 0,0.181427 0.03705,0.141878 0.158109,-0.168748 z m -1.620617,0 c -0.07098,-0.03816 -0.264545,-0.06563 -0.43015,-0.06106 l -0.301107,0.0083 0.301107,0.05273 c 0.165605,0.029 0.359173,0.05647 0.43015,0.06105 0.114705,0.0074 0.114705,5.67e-4 0,-0.06105 z m 1.464236,-0.252227 c 0.166244,-0.166642 0.04762,-0.198046 -0.130293,-0.03449 -0.08591,0.07897 -0.116217,0.143579 -0.06736,0.143579 0.04886,0 0.137798,-0.04908 0.197653,-0.109085 z M 13.236759,20.389628 C 13.02779,20.212491 12.837456,20.067561 12.8138,20.067561 c -0.02364,0 0.12796,0.14493 0.336928,0.322067 0.208969,0.177139 0.399303,0.322066 0.422959,0.322066 0.02364,0 -0.127959,-0.144927 -0.336928,-0.322066 z m -1.555904,-0.536777 c -0.0031,-0.07079 -0.02991,-0.0586 -0.07867,0.03579 -0.101627,0.196751 -0.101627,0.309752 0,0.178925 0.04587,-0.05904 0.08127,-0.155666 0.07867,-0.21471 z m 0.620249,-0.37694 c -0.08497,-0.07016 -0.09485,-0.06194 -0.04816,0.04007 0.03229,0.07059 0.08041,0.110306 0.1069,0.08827 0.02647,-0.02205 5.4e-5,-0.07979 -0.05874,-0.128337 z"
       id="path2201" />
    <path
       style="fill:#f7af00;fill-opacity:1;stroke-width:0.0785916"
       d="m 12.720578,22.942311 v -1.58648 h -1.247436 c -0.686089,0 -1.247439,-0.02604 -1.247439,-0.05788 0,-0.07098 2.225861,-5.017193 2.32466,-5.165762 0.101282,-0.152296 0.135617,0.0071 0.385292,1.788253 0.118628,0.84632 0.234211,1.60648 0.256852,1.689242 0.03692,0.13498 0.135172,0.158386 0.953962,0.227279 0.502037,0.04225 0.934173,0.09458 0.960295,0.116318 0.02613,0.02173 -0.02098,0.193214 -0.104726,0.381069 -0.157679,0.353799 -2.184981,4.111862 -2.246617,4.164613 -0.01917,0.01641 -0.03484,-0.684094 -0.03484,-1.556658 z m 0.979158,-1.053419 c 0.02937,-0.0637 0.01496,-0.09242 -0.03379,-0.06735 -0.04677,0.02406 -0.08505,0.07404 -0.08505,0.111075 0,0.102949 0.06167,0.08026 0.118857,-0.04372 z m -0.489389,-0.299096 c -0.02181,-0.06964 -0.0411,-0.02999 -0.04284,0.0881 -0.0017,0.118093 0.01607,0.175065 0.03965,0.126611 0.02357,-0.04846 0.02501,-0.145077 0.0031,-0.214712 z m -0.982806,-0.710334 c -0.05824,-0.01961 -0.174384,-0.0208 -0.258088,-0.0025 -0.08371,0.01813 -0.03605,0.03419 0.105898,0.03565 0.14195,0.0014 0.210437,-0.01338 0.15219,-0.033 z m 1.697457,-0.239336 c 0.05065,-0.07873 0.07736,-0.143142 0.05938,-0.143142 -0.01798,0 -0.102777,0.06442 -0.18842,0.143142 -0.08564,0.07872 -0.11236,0.143139 -0.05938,0.143139 0.05298,0 0.137774,-0.06442 0.18842,-0.143139 z m -0.516178,-0.09396 c 0,-0.01232 -0.125819,-0.116989 -0.279597,-0.232604 l -0.279599,-0.210209 0.252679,0.232604 c 0.23553,0.216819 0.306517,0.265501 0.306517,0.210209 z M 11.685582,19.88864 c 0,-0.03936 -0.03753,-0.02326 -0.0834,0.03579 -0.04586,0.05904 -0.08339,0.139559 -0.08339,0.178925 0,0.03936 0.03753,0.02326 0.08339,-0.03579 0.04587,-0.05904 0.0834,-0.139563 0.0834,-0.178925 z"
       id="path2203" />
    <path
       style="fill:#f7af00;fill-opacity:1;stroke-width:0.0785916"
       d="m 12.726543,22.948273 -0.0059,-1.592442 H 11.47316 c -0.686089,0 -1.247439,-0.028 -1.247439,-0.06221 0,-0.05602 1.672599,-3.802541 2.155371,-4.82791 0.126001,-0.267613 0.218579,-0.38297 0.258474,-0.322067 0.03419,0.05219 0.169003,0.851748 0.299589,1.776798 0.130588,0.925047 0.270972,1.718055 0.311967,1.762238 0.04099,0.04419 0.354568,0.101958 0.696828,0.128391 1.14058,0.08808 1.202209,0.105331 1.140583,0.31916 -0.05765,0.200024 -1.322432,2.596945 -1.968507,3.73056 l -0.387521,0.679923 z m 0.482953,-1.31958 c -0.02745,-0.0571 -0.04785,-0.04014 -0.05197,0.04324 -0.0038,0.07544 0.01659,0.117721 0.04519,0.09394 0.02858,-0.02378 0.03164,-0.08551 0.0068,-0.137176 z m -1.028397,-0.745528 c -0.02858,-0.02378 -0.102787,-0.02633 -0.164894,-0.0057 -0.06862,0.02284 -0.04824,0.03981 0.05198,0.04324 0.09069,0.0031 0.141501,-0.0138 0.112916,-0.03759 z m 1.743899,-0.251487 c 0,-0.03936 -0.03871,-0.05167 -0.08602,-0.02735 -0.04731,0.02431 -0.08603,0.07644 -0.08603,0.115802 0,0.03936 0.03871,0.05167 0.08603,0.02735 0.04731,-0.02431 0.08602,-0.07644 0.08602,-0.115802 z m -0.602209,-0.159387 c 0,-0.01358 -0.0871,-0.08605 -0.193566,-0.161034 l -0.193568,-0.13634 0.163885,0.161034 c 0.154013,0.151332 0.223249,0.193616 0.223249,0.13634 z"
       id="path2205" />
    <path
       style="fill:#f7af00;fill-opacity:1;stroke-width:0.0785916"
       d="m 12.72797,22.948273 -0.0074,-1.592442 h -1.24744 c -0.686089,0 -1.247439,-0.02906 -1.247439,-0.06458 0,-0.05851 1.387175,-3.176457 2.069006,-4.65051 0.180432,-0.390077 0.299896,-0.565244 0.341681,-0.500994 0.03534,0.05434 0.174531,0.852796 0.309324,1.774357 0.139335,0.952628 0.290224,1.713128 0.349717,1.762621 0.05755,0.04788 0.406641,0.109579 0.775748,0.137106 1.020767,0.07613 1.0812,0.09493 1.017074,0.316538 -0.05589,0.19316 -1.545863,3.01703 -2.062708,3.909355 l -0.290179,0.500995 -0.0074,-1.592446 z m 1.197028,-2.308147 c 0,-0.03936 -0.01707,-0.07157 -0.03793,-0.07157 -0.02089,0 -0.06187,0.03221 -0.09111,0.07157 -0.02923,0.03936 -0.01216,0.07157 0.03794,0.07157 0.05011,0 0.09111,-0.03221 0.09111,-0.07157 z"
       id="path2207" />
    <path
       style="fill:#f7af00;fill-opacity:1;stroke-width:0.0785916"
       d="m 12.728141,22.948273 -0.0076,-1.592442 h -1.247439 c -0.809184,0 -1.247439,-0.02625 -1.247439,-0.07471 0,-0.09509 2.131351,-4.838716 2.281754,-5.078369 l 0.112292,-0.178924 0.05219,0.178924 c 0.02872,0.09841 0.165272,0.915114 0.303475,1.814902 0.138206,0.899785 0.270973,1.652354 0.295041,1.672373 0.02408,0.02004 0.436847,0.07894 0.917289,0.130911 0.480442,0.05198 0.896289,0.113438 0.924103,0.136578 0.0278,0.02312 -0.0014,0.162038 -0.06477,0.308662 -0.150427,0.34767 -1.419552,2.723054 -1.920546,3.594617 l -0.390832,0.679923 z"
       id="path2209" />
    <path
       sodipodi:nodetypes="ccsssccscscsccc"
       style="fill:#f7af00;fill-opacity:1;stroke-width:0.0785916"
       d="m 12.727977,22.948273 -0.0074,-1.592442 h -1.247435 c -0.828316,0 -1.24744,-0.02573 -1.24744,-0.07655 0,-0.09595 2.126906,-4.83268 2.276992,-5.070981 C 12.604997,16.045864 12.952873,13.871535 13,14 c 0.02793,0.07612 -0.206245,2.841519 -0.109327,3.49102 0.09691,0.649501 0.219618,1.413761 0.27267,1.698354 0.109291,0.586267 -0.01639,0.520909 1.264788,0.657742 0.3477,0.03713 0.655154,0.08664 0.683235,0.109995 0.02807,0.02335 -3.41e-4,0.162439 -0.06341,0.309064 -0.155832,0.362951 -1.349631,2.599369 -1.8806,3.523046 L 12,28 12.727967,22.948269 Z"
       id="path2211" />
    <rect
       style="fill:#000000;fill-opacity:1;stroke-width:0.311205"
       id="rect2215"
       width="5.0757771"
       height="1.3598394"
       x="10.538294"
       y="0.49701783" />
  </g>
</svg>
