<svg xmlns="http://www.w3.org/2000/svg" xmlns:xlink="http://www.w3.org/1999/xlink" version="1.1" x="0px" y="0px" viewBox="0 0 100 125" style="enable-background:new 0 0 100 100;" xml:space="preserve"><g><path d="M26.84,20.38h5.94c2.52,0,4.57-2.04,4.57-4.57v0c0-2.52-2.04-4.57-4.57-4.57H15.52c-2.36,0-4.27,1.91-4.27,4.27v17.26   c0,2.52,2.04,4.57,4.57,4.57s4.57-2.04,4.57-4.57v-5.94l16.7,16.7c1.78,1.78,4.67,1.78,6.46,0v0c1.78-1.78,1.78-4.67,0-6.46   L26.84,20.38z"/><path d="M85.43,63.9L85.43,63.9c-2.52,0-4.57,2.04-4.57,4.57v5.94l-16.7-16.7c-1.78-1.78-4.67-1.78-6.46,0v0   c-1.78,1.78-1.78,4.67,0,6.46l16.7,16.7h-5.94c-2.52,0-4.57,2.04-4.57,4.57S65.95,90,68.47,90h17.26c2.36,0,4.27-1.91,4.27-4.27   V68.47C90,65.95,87.96,63.9,85.43,63.9z"/><path d="M85.73,10l-17.26,0c-2.52,0-4.57,2.04-4.57,4.57v0c0,2.52,2.04,4.57,4.57,4.57h5.94l-16.7,16.7   c-1.78,1.78-1.78,4.67,0,6.46c1.78,1.78,4.67,1.78,6.46,0l16.7-16.7v5.94c0,2.52,2.04,4.57,4.57,4.57h0c2.52,0,4.57-2.04,4.57-4.57   V14.27C90,11.91,88.09,10,85.73,10z"/><path d="M42.29,57.71c-1.78-1.78-4.67-1.78-6.46,0l-16.7,16.7v-5.94c0-2.52-2.04-4.57-4.57-4.57c-2.52,0-4.57,2.04-4.57,4.57v17.26   c0,2.36,1.91,4.27,4.27,4.27h17.26c2.52,0,4.57-2.04,4.57-4.57s-2.04-4.57-4.57-4.57h-5.94l16.7-16.7   C44.07,62.38,44.07,59.49,42.29,57.71L42.29,57.71z"/></g></svg>