<svg xmlns:dc="http://purl.org/dc/elements/1.1/" xmlns:cc="http://creativecommons.org/ns#" xmlns:rdf="http://www.w3.org/1999/02/22-rdf-syntax-ns#" xmlns:svg="http://www.w3.org/2000/svg" xmlns="http://www.w3.org/2000/svg" xmlns:sodipodi="http://sodipodi.sourceforge.net/DTD/sodipodi-0.dtd" xmlns:inkscape="http://www.inkscape.org/namespaces/inkscape" version="1.1" x="0px" y="0px" viewBox="0 0 100 125"><g transform="translate(0,-952.36218)"><path style="text-indent:0;text-transform:none;direction:ltr;block-progression:tb;baseline-shift:baseline;color:#000000;enable-background:accumulate;" d="m 50.053877,970.36242 c 0.41963,0.009 0.81114,0.14803 1.1875,0.40625 l 38,30.00003 c 0.87429,0.7021 0.99833,1.9978 0.34375,2.8438 -0.64516,0.8337 -2.01747,0.9672 -2.84375,0.3125 l -36.75,-29.00008 -36.75,29.00008 c -0.82628,0.6547 -2.16085,0.5162 -2.8125,-0.3125 -0.6467602,-0.8225 -0.5772202,-2.1889 0.3125,-2.8438 l 14.25,-11.25003 0,-17.15625 a 2.0002,2.0002 0 0 1 2,-2 l 8,0 a 2.0002,2.0002 0 0 1 2,2 l 0,7.6875 11.75,-9.28125 c 0.44512,-0.29323 0.89287,-0.415 1.3125,-0.40625 z m -17.0625,4 -4,0 0,12 4,-3.15625 0,-8.84375 z m 42,22.90625 4,3.15623 0,31.9375 a 2.0001999,2.0001999 0 0 1 -2,2 l -17,0 a 2.0001999,2.0001999 0 0 1 -2,-2 l 0,-17.9999 -16,0 0,17.9999 a 2.0001999,2.0001999 0 0 1 -2,2 l -17,0 a 2.0001999,2.0001999 0 0 1 -2,-2 l 0,-31.9375 4,-3.15623 0,33.09373 13,0 0,-17.9999 a 2.0001999,2.0001999 0 0 1 2,-2 l 20,0 a 2.0001999,2.0001999 0 0 1 2,2 l 0,17.9999 13,0 0,-33.09373 z" fill="#000000" fill-opacity="1" stroke="none" marker="none" visibility="visible" display="inline" overflow="visible"/></g></svg>