<svg xmlns="http://www.w3.org/2000/svg" xmlns:xlink="http://www.w3.org/1999/xlink" viewBox="0 0 116.22047 61.596849"><defs><style>.cls-1{fill:#005e90;}.cls-2{fill:url(#Unbenannter_Verlauf_5);}.cls-3{fill:url(#Unbenannter_Verlauf_62);}.cls-4{fill:url(#Unbenannter_Verlauf_41);}.cls-5{fill:#f2b700;}.cls-6{fill:url(#Unbenannter_Verlauf_32);}.cls-7{fill:url(#Unbenannter_Verlauf_6);}.cls-8{fill:url(#Unbenannter_Verlauf_6-2);}</style><linearGradient id="Unbenannter_Verlauf_5" x1="77.08391" y1="22.21157" x2="113.43772" y2="30.60451" gradientUnits="userSpaceOnUse"><stop offset="0.05" stop-color="#5e9841"/><stop offset="0.4596" stop-color="#679d48"/><stop offset="0.65" stop-color="#6da14d"/><stop offset="0.95" stop-color="#5e9841"/></linearGradient><linearGradient id="Unbenannter_Verlauf_62" x1="77.08391" y1="22.21157" x2="113.43772" y2="30.60451" gradientUnits="userSpaceOnUse"><stop offset="0.05" stop-color="#289b38"/><stop offset="0.36963" stop-color="#319f41"/><stop offset="0.65" stop-color="#3da54c"/><stop offset="0.95" stop-color="#289b38"/></linearGradient><linearGradient id="Unbenannter_Verlauf_41" x1="94.87943" y1="13.29865" x2="94.87943" y2="24.93903" gradientUnits="userSpaceOnUse"><stop offset="0" stop-color="#2676a1"/><stop offset="0.00529" stop-color="#2576a1"/><stop offset="0.17354" stop-color="#116897"/><stop offset="0.33964" stop-color="#046192"/><stop offset="0.5" stop-color="#005e90"/></linearGradient><linearGradient id="Unbenannter_Verlauf_32" x1="90.27939" y1="14.03253" x2="90.27939" y2="0.00081" gradientUnits="userSpaceOnUse"><stop offset="0" stop-color="#6dc6e8"/><stop offset="0.19323" stop-color="#58bee5"/><stop offset="0.73219" stop-color="#21a8dc"/><stop offset="0.99375" stop-color="#0ca0d9"/></linearGradient><linearGradient id="Unbenannter_Verlauf_6" x1="113.26653" y1="13.74329" x2="113.26653" y2="13.73981" gradientUnits="userSpaceOnUse"><stop offset="0" stop-color="#96c5e2"/><stop offset="0.21183" stop-color="#7fb9dc"/><stop offset="0.51882" stop-color="#64aad5"/><stop offset="0.79155" stop-color="#54a1d1"/><stop offset="1" stop-color="#4e9ecf"/></linearGradient><linearGradient id="Unbenannter_Verlauf_6-2" x1="112.71431" y1="13.71899" x2="112.71431" y2="13.71558" xlink:href="#Unbenannter_Verlauf_6"/></defs><title>Mecklenburg-Vorpommern – MV tut gut.</title><g id="tut_gut._40" data-name="tut gut. 40"><path class="cls-1" d="M53.75344,52.80545a3.9581,3.9581,0,0,1-2.40381.78858c-1.52832,0-2.90527-.84571-2.90527-3.10694V44.70438H46.76028A13.6736,13.6736,0,0,0,46.9761,43.013l1.5791-.2583.271-1.95459a11.66615,11.66615,0,0,1,1.70362-.481V43.013h3.20752a13.6736,13.6736,0,0,1-.21582,1.69141h-2.9917v5.27246c0,1.27686.6372,1.69434,1.50586,1.69434a3.2961,3.2961,0,0,0,1.93408-.68506A5.89055,5.89055,0,0,1,53.75344,52.80545Z"/><path class="cls-1" d="M63.99856,53.52469a7.80025,7.80025,0,0,1-.7041-2.63086,3.86811,3.86811,0,0,1-3.79737,2.69971c-2.06787,0-3.312-1.333-3.312-3.77393v-6.48a14.32361,14.32361,0,0,1,2.08545-.58886v6.64062c0,1.45117.70947,2.22656,1.83789,2.22656,1.64355,0,3.10742-1.59668,3.10742-3.915v-1.4624c0-1.61963-.03125-2.77685-.05517-3.19824a10.5755,10.5755,0,0,1,2.10058-.06543c.01709.35889.04053,1.48975.04053,3.26367V49.3953a12.13883,12.13883,0,0,0,.46387,3.69482A4.53265,4.53265,0,0,1,63.99856,53.52469Z"/><path class="cls-1" d="M74.62942,52.80545a3.95815,3.95815,0,0,1-2.40381.78858c-1.52832,0-2.90528-.84571-2.90528-3.10694V44.70438H67.63625a13.67169,13.67169,0,0,0,.21582-1.69141l1.5791-.2583.271-1.95459a11.66636,11.66636,0,0,1,1.70361-.481V43.013H74.6133a13.67169,13.67169,0,0,1-.21582,1.69141h-2.9917v5.27246c0,1.27686.63721,1.69434,1.50586,1.69434a3.296,3.296,0,0,0,1.93408-.68506A5.89051,5.89051,0,0,1,74.62942,52.80545Z"/><path class="cls-1" d="M88.55569,51.67264c1.75.33594,2.498,1.188,2.498,2.43164,0,2.06543-2.11426,3.78516-5.418,3.78516-2.62841,0-4.54052-1.05371-4.54052-2.6499,0-1.39454,1.23925-2.30274,2.69287-2.69629a2.03468,2.03468,0,0,1-1.27149-1.814,1.89434,1.89434,0,0,1,.78711-1.51123,3.13428,3.13428,0,0,1-1.8042-2.86865c0-2.22461,2.0708-3.59863,4.50147-3.59863a5.61022,5.61022,0,0,1,1.73144.25781H91.2051a11.4867,11.4867,0,0,1-.2207,1.56445l-1.49756-.41553a3.09669,3.09669,0,0,1,.69336,1.99707c0,2.22071-2.05811,3.58448-4.49512,3.58448a5.97529,5.97529,0,0,1-1.24121-.12451.79386.79386,0,0,0-.13672.44287c0,.4375.3291.86279,1.7417,1.13427l2.50684.48145ZM89.06447,54.49c0-.47314-.3208-.82324-1.57617-1.06445l-1.96875-.37793c-1.35449.2749-2.48925.92041-2.48925,1.71582,0,.80908,1.25048,1.42285,2.89013,1.42285C87.77346,56.18631,89.06447,55.4368,89.06447,54.49Zm-5.563-8.19726A2.0449,2.0449,0,0,0,85.77785,48.157a2.165,2.165,0,0,0,2.40088-1.94629,2.05016,2.05016,0,0,0-2.271-1.87842A2.17934,2.17934,0,0,0,83.50149,46.29276Z"/><path class="cls-1" d="M101.107,53.52469a7.80046,7.80046,0,0,1-.70411-2.63086,3.86809,3.86809,0,0,1-3.79736,2.69971c-2.06787,0-3.312-1.333-3.312-3.77393v-6.48a14.32325,14.32325,0,0,1,2.08545-.58886v6.64062c0,1.45117.70947,2.22656,1.83789,2.22656,1.64355,0,3.10742-1.59668,3.10742-3.915v-1.4624c0-1.61963-.03125-2.77685-.05518-3.19824a10.57563,10.57563,0,0,1,2.10059-.06543c.01709.35889.04053,1.48975.04053,3.26367V49.3953a12.13883,12.13883,0,0,0,.46387,3.69482A4.53265,4.53265,0,0,1,101.107,53.52469Z"/><path class="cls-1" d="M111.73781,52.80545a3.95809,3.95809,0,0,1-2.4038.78858c-1.52832,0-2.90528-.84571-2.90528-3.10694V44.70438h-1.68408a13.67169,13.67169,0,0,0,.21582-1.69141l1.5791-.2583.271-1.95459a11.66636,11.66636,0,0,1,1.70361-.481V43.013h3.20752a13.67169,13.67169,0,0,1-.21582,1.69141h-2.9917v5.27246c0,1.27686.63721,1.69434,1.50586,1.69434a3.29608,3.29608,0,0,0,1.93408-.68506A5.89055,5.89055,0,0,1,111.73781,52.80545Z"/><path class="cls-1" d="M113.79616,52.3787a1.31151,1.31151,0,0,1,1.28466-1.3794,1.129,1.129,0,0,1,1.13965,1.21436A1.31177,1.31177,0,0,1,114.9358,53.594,1.12982,1.12982,0,0,1,113.79616,52.3787Z"/></g><g id="MV_40" data-name="MV 40"><path class="cls-1" d="M70.86079.186,56.3,31.2433H50.56612L36.00536.186a.09132.09132,0,0,1,.08216-.11994h.90427A13.42714,13.42714,0,0,1,40.578.44591a6.59341,6.59341,0,0,1,3.43214,3.50857c1.51057,2.97876,9.42287,19.602,9.42287,19.602s7.91237-16.6232,9.42294-19.602A6.5933,6.5933,0,0,1,66.28805.44591,13.42772,13.42772,0,0,1,69.87429.06606h.90428A.09135.09135,0,0,1,70.86079.186Z"/><path class="cls-1" d="M32.78247.07069h-.41792a15.44729,15.44729,0,0,0-3.88737.42444c-1.77327.625-3.05629,2.13153-5.26713,6.58515-1.48466,2.99024-5.77485,11.94025-5.777,11.94452-.00213-.00427-4.29232-8.95428-5.777-11.94452C9.44525,2.62666,8.16223,1.12013,6.389.49513A15.44716,15.44716,0,0,0,2.50159.07069H2.08368L0,31.2518H5.92717L7.39906,8.8536,15.75948,26.493h3.34718L27.46708,8.8536,28.939,31.2518h5.92717Z"/></g><g id="Bildzeichen_40" data-name="Bildzeichen 40"><path class="cls-2" d="M100.9129,20.95462c-5.679.31559-12.82928,2.6454-17.21232,3.37a52.42079,52.42079,0,0,1-7.24636.61441v6.24207h36.85037V21.45885a47.93751,47.93751,0,0,0-8.41788-.61591C103.67309,20.84294,102.34472,20.87528,100.9129,20.95462Z"/><path class="cls-3" d="M100.9129,20.95462c-5.679.31559-12.82928,2.6454-17.21232,3.37a52.42079,52.42079,0,0,1-7.24636.61441v6.24207h36.85037V21.45885a47.93751,47.93751,0,0,0-8.41788-.61591C103.67309,20.84294,102.34472,20.87528,100.9129,20.95462Z"/><path class="cls-4" d="M94.87955,13.29865c-8.53535,0-18.42531.73388-18.42531.73388V24.939a52.41512,52.41512,0,0,0,7.24635-.61445c4.383-.72454,11.53325-3.05438,17.21228-3.37,1.43183-.07935,2.76024-.11169,3.97382-.11169a47.934,47.934,0,0,1,8.41792.616V13.74329S103.72831,13.29865,94.87955,13.29865Z"/><path class="cls-5" d="M104.10456.00061a64.43537,64.43537,0,0,0-2.6283,9.25488,39.51381,39.51381,0,0,0-.687,4.10034c6.72951.11976,12.51539.38746,12.51539.38746V0Z"/><path class="cls-6" d="M101.47625,9.25549a64.40366,64.40366,0,0,1,2.6283-9.25407L76.45424.00081V14.03253s9.88995-.73389,18.4253-.73389c1.97325,0,3.9783.02283,5.90967.05719A39.51043,39.51043,0,0,1,101.47625,9.25549Z"/><path class="cls-7" d="M113.30461,13.74329l-.07617-.00348Z"/><path class="cls-8" d="M112.75442,13.719l-.08022-.00341Z"/></g></svg>