<?xml version="1.0" encoding="UTF-8" standalone="no"?>
<svg
   xmlns:dc="http://purl.org/dc/elements/1.1/"
   xmlns:cc="http://creativecommons.org/ns#"
   xmlns:rdf="http://www.w3.org/1999/02/22-rdf-syntax-ns#"
   xmlns:svg="http://www.w3.org/2000/svg"
   xmlns="http://www.w3.org/2000/svg"
   xmlns:sodipodi="http://sodipodi.sourceforge.net/DTD/sodipodi-0.dtd"
   xmlns:inkscape="http://www.inkscape.org/namespaces/inkscape"
   inkscape:version="1.0beta1 (32d4812, 2019-09-19)"
   height="96.900002"
   width="72.102669"
   sodipodi:docname="noun_Train_2089430.svg"
   id="svg841"
   xml:space="preserve"
   viewBox="0 0 72.102669 96.900002"
   y="0px"
   x="0px"
   version="1.1">
  <style
     id="style849"></style>
  <metadata
     id="metadata847">
    <rdf:RDF>
      <cc:Work
         rdf:about="">
        <dc:format>image/svg+xml</dc:format>
        <dc:type
           rdf:resource="http://purl.org/dc/dcmitype/StillImage" />
      </cc:Work>
    </rdf:RDF>
  </metadata>
  <defs
     id="defs845" />
  <sodipodi:namedview
     inkscape:current-layer="svg841"
     inkscape:window-maximized="0"
     inkscape:window-y="23"
     inkscape:window-x="0"
     inkscape:cy="62.585714"
     inkscape:cx="63.120527"
     inkscape:zoom="3.120283"
     showgrid="false"
     id="namedview843"
     inkscape:window-height="1209"
     inkscape:window-width="1657"
     inkscape:pageshadow="2"
     inkscape:pageopacity="0"
     guidetolerance="10"
     gridtolerance="10"
     objecttolerance="10"
     borderopacity="1"
     inkscape:document-rotation="0"
     bordercolor="#666666"
     pagecolor="#ffffff" />
  <path
     inkscape:connector-curvature="0"
     id="path835"
     d="m 71.57767,93.7 -17.8,-16.7 h 1.7 c 5.6,0 10.2,-4.6 10.2,-10.2 V 10.2 c 0,-5.6 -4.6,-10.2 -10.2,-10.2 h -39.7 c -5.6,0 -10.2000005,4.6 -10.2000005,10.2 v 56.5 c 0,5.6 4.6000005,10.2 10.2000005,10.2 h 2.5 L 0.57766953,93.7 c -0.7,0.7 -0.8,1.8 -0.1,2.6 0.4,0.4 0.79999997,0.6 1.29999997,0.6 0.4,0 0.9,-0.2 1.2,-0.5 l 4.9,-4.6 H 64.17767 l 4.9,4.6 c 0.3,0.3 0.8,0.5 1.2,0.5 0.5,0 1,-0.2 1.3,-0.6 0.7,-0.8 0.7,-1.9 0,-2.6 z m -16.1,-34.2 c 0,2.7 -2.2,4.8 -4.8,4.8 -2.7,0 -4.8,-2.2 -4.8,-4.8 0,-2.7 2.2,-4.8 4.8,-4.8 2.7,0 4.8,2.2 4.8,4.8 z m -2.8,21.4 h -33.3 l 4,-3.8 c 0,0 0,-0.1 0.1,-0.1 h 25 c 0,0 0,0.1 0.1,0.1 z M 27.77767,9 h 16.2 c 1,0 1.8,0.8 1.8,1.8 0,1 -0.8,1.8 -1.8,1.8 h -16.2 c -1,0 -1.8,-0.8 -1.8,-1.8 0,-1 0.8,-1.8 1.8,-1.8 z m -11.5,12 h 38.7 v 22.9 h -38.7 z m -0.5,38.5 c 0,-2.7 2.2,-4.8 4.8,-4.8 2.7,0 4.8,2.2 4.8,4.8 0,2.7 -2.2,4.8 -4.8,4.8 -2.6,0 -4.8,-2.1 -4.8,-4.8 z m -4,28.6 3.8,-3.6 h 40.9 l 3.8,3.6 z" />
</svg>
