<svg xmlns:x="http://ns.adobe.com/Extensibility/1.0/" xmlns:i="http://ns.adobe.com/AdobeIllustrator/10.0/" xmlns:graph="http://ns.adobe.com/Graphs/1.0/" xmlns="http://www.w3.org/2000/svg" xmlns:xlink="http://www.w3.org/1999/xlink" version="1.1" x="0px" y="0px" viewBox="0 0 72 90" style="enable-background:new 0 0 72 72;" xml:space="preserve"><metadata><?xpacket begin="&#65279;" id="W5M0MpCehiHzreSzNTczkc9d"?><x:xmpmeta xmlns:x="adobe:ns:meta/" x:xmptk="Adobe XMP Core 5.6-c145 79.163499, 2018/08/13-16:40:22        "/><?xpacket end="w"?></metadata><path d="M68,19.8251953H21.2113647l0.0093384-7.2783203c0-4.7695312-3.8613281-8.6499023-8.6083984-8.6499023h-1.0039062  C6.8613281,3.8969727,3,7.7773438,3,12.546875v46.3232422c0,5.0908203,4.0703125,9.2329102,9.0742188,9.2329102H68  c0.5527344,0,1-0.4477539,1-1v-46.277832C69,20.2729492,68.5527344,19.8251953,68,19.8251953z M13.1103516,51.7229614  c3.4173584,0.5145264,6.0507812,3.5189819,6.0507812,7.1471558c0,0.062561,0.0245972,0.1170044,0.0355835,0.1763916  c0.0132446,0.0715332,0.0152588,0.1470337,0.0428467,0.2122803c0.0189819,0.0449219,0.0551758,0.0782471,0.0802612,0.1195068  c-0.0157471,0.0344238-0.0393677,0.0636597-0.0512695,0.1002197c-0.0068359,0.0209961-0.7167969,2.1435547-2.5332031,2.9345703  c-1.0195312,0.4438477-2.2373047,0.3994141-3.625-0.1333008V51.7229614z M5,12.546875  c0-3.6669922,2.9648438-6.6499023,6.6083984-6.6499023h1.0039062c3.6435547,0,6.6083984,2.9829102,6.6083984,6.6484375  L19.2003174,28.406189c0,0.0001831-0.0001221,0.0003662-0.0001221,0.0005493s0.0001221,0.0003662,0.0001221,0.0005493  L19.185791,39.6940918c0,0.0004272-0.0002441,0.0007935-0.0002441,0.0012207s0.0002441,0.0007935,0.0002441,0.0012207  l-0.0109253,8.5127563c0,0.000061-0.000061,0.0001221-0.000061,0.0001831s0.000061,0.0001221,0.000061,0.0001831  l-0.0063477,4.9058228c-1.6665039-2.1169434-4.2249756-3.4787598-7.0942993-3.4787598  c-2.859314,0-5.40979,1.3557129-7.0742188,3.4649048V12.546875z M67,66.1030273H12.0742188  C8.1738281,66.1030273,5,62.8583984,5,58.8701172c0-3.6531372,2.6654053-6.6747437,6.1103516-7.1581421v11.2299194  c0,0.3896484,0.2265625,0.7436523,0.5800781,0.9072266c1.2509766,0.5795898,2.4335938,0.8696289,3.5380859,0.8696289  c0.8203125,0,1.5976562-0.1601562,2.3261719-0.4814453c1.8740234-0.8251953,2.8896484-2.5029297,3.3369141-3.4545898  c2.0429688-0.0053711,8.5302734-0.0209961,16.0332031-0.03125c0.5527344-0.0009766,1-0.4492188,0.9990234-1.0014648  c-0.0009766-0.5517578-0.4482422-0.9985352-1-0.9985352h-0.0009766c-0.5332642,0.0007324-1.0602417,0.0014648-1.5820312,0.0022583  V48.2094727c0-0.5522461-0.4472656-1-1-1h-3.3632812c-0.5527344,0-1,0.4477539-1,1s0.4472656,1,1,1h2.3632812v9.5473633  c-5.6460571,0.0091553-10.2772217,0.0204468-12.1795654,0.0253296l0.0123291-9.5726929h4.8293457c0.5527344,0,1-0.4477539,1-1  s-0.4472656-1-1-1h-4.8267822l0.0083618-6.5141602h11.9932251c0.5527344,0,1-0.4477539,1-1s-0.4472656-1-1-1H21.1870728  l0.0119629-9.2885742h22.7931519v9.2885742h-5.5527344c-0.5527344,0-1,0.4477539-1,1s0.4472656,1,1,1h12.1650391  c0.5527344,0,1-0.4477539,1-1s-0.4472656-1-1-1h-4.6123047v-9.2885742H58.296875  c0.0084229,2.8934326,0.0165405,6.0894775,0.0232544,9.2885742h-2.7566528c-0.5527344,0-1,0.4477539-1,1s0.4472656,1,1,1h2.7606201  c0.0042114,2.2357178,0.0076294,4.4401855,0.0097656,6.5141602h-5.5760498c-0.5527344,0-1,0.4477539-1,1s0.4472656,1,1,1h5.5778198  c0.0028687,4.4036865-0.0010376,7.9831543-0.0162964,9.5869141c-1.7561646-0.0591431-5.5245361-0.0617676-13.8095703-0.0527954  v-9.5341187h2.5390625c0.5527344,0,1-0.4477539,1-1s-0.4472656-1-1-1h-3.5390625c-0.5527344,0-1,0.4477539-1,1v10.536377  c-0.4864502,0.0005493-0.973877,0.0010986-1.4882812,0.001709c-0.5527344,0.0004883-1,0.4487305-0.9990234,1.0009766  s0.4482422,0.9990234,1,0.9990234h0.0009766c0.7988281-0.0009766,1.5566406-0.00177,2.2879028-0.0024414  c0.0662842,0.013855,0.1279907,0.0400391,0.1984253,0.0400391c0.071106,0,0.1334839-0.0263672,0.2003784-0.0404663  c12.4436035-0.0112305,15.0783081,0.0142822,15.4558716,0.0316772c0.0429688,0.0058594,0.0859375,0.0083008,0.1289062,0.0083008  c0.1289062,0,0.2597656-0.0249023,0.3837891-0.0766602c0.6474609-0.269043,0.6474609-0.269043,0.6552734-5.8413086  c0.0048828-2.9443359,0.0019531-6.8662109-0.0039062-10.7871094c-0.0023804-1.4787598-0.005188-2.9569702-0.0081177-4.3828125  c0-0.0005493,0.0003052-0.0009155,0.0003052-0.0014648s-0.0003052-0.0009766-0.0003052-0.0015259  c-0.0126343-6.1327515-0.0280151-11.289978-0.0280151-11.289978c-0.0019531-0.5512695-0.4492188-0.9970703-1-0.9970703H21.2015991  l0.0072021-5.581543H67V66.1030273z"/></svg>