<svg xmlns="http://www.w3.org/2000/svg" xmlns:xlink="http://www.w3.org/1999/xlink" viewBox="0 0 56 72.5" version="1.1" x="0px" y="0px"><title>001 - Solar Power</title><desc>Created with Sketch.</desc><g stroke="none" stroke-width="1" fill="none" fill-rule="evenodd"><g fill="#000000" fill-rule="nonzero"><polygon points="37.357 13 29 13 29 18 38.214 18"/><polygon points="40.957 34 29 34 29 39 41.814 39"/><polygon points="38.557 20 29 20 29 25 39.414 25"/><polygon points="27 13 18.82 13 17.82 18 27 18"/><polygon points="39.757 27 29 27 29 32 40.614 32"/><polygon points="55.637 39 54.066 34 42.986 34 43.843 39"/><polygon points="51.237 25 49.666 20 40.586 20 41.443 25"/><polygon points="39.386 13 40.244 18 49.037 18 47.466 13"/><polygon points="53.437 32 51.866 27 41.786 27 42.643 32"/><polygon points="16.78 13 8.714 13 7 18 15.78 18"/><polygon points="35 56 21 56 13.618 56 12.618 58 43.382 58 42.382 56"/><polygon points="27 25 27 20 17.443 20 16.586 25"/><polygon points="0 45 24 45 32 45 56 45 56 41 0 41"/><polygon points="13.014 34 1.934 34 0.363 39 12.157 39"/><polygon points="24.721 47 22.387 54 33.613 54 31.279 47"/><polygon points="14.186 39 27 39 27 34 15.043 34"/><polygon points="27 27 16.243 27 15.386 32 27 32"/><polygon points="14.214 27 4.134 27 2.563 32 13.357 32"/><polygon points="15.414 20 6.334 20 4.762 25 14.557 25"/><path d="M32.10791,7.86621 L35.63452,9.90221 C35.4840696,10.2586007 35.359859,10.6255074 35.26288,11 L48.2002,11 C48.21777,11 48.23242,11.00909 48.24976,11.01 C48.3145086,11.0164275 48.3784469,11.0293491 48.44061,11.04857 C48.692951,11.0907917 48.9110384,11.2485673 49.03009,11.47503 C49.0703394,11.5322482 49.1042297,11.5936846 49.13116,11.65825 C49.13684,11.6737 49.14929,11.68432 49.1543,11.70019 L50.45648,15.84356 C50.6854058,15.244646 50.8432455,14.6209325 50.92676,13.98522 C50.95221,13.98718 50.974,14 51,14 L55,14 C55.5522847,14 56,13.5522847 56,13 C56,12.4477153 55.5522847,12 55,12 L51,12 C50.97614,12 50.95618,12.012 50.93268,12.01361 C50.8453464,11.2921379 50.6593419,10.5860778 50.37988,9.91522 C50.4237639,9.90035672 50.4665182,9.88234663 50.50781,9.86133 L53.8999,7.86133 C54.3755994,7.58087427 54.5338757,6.96788943 54.25342,6.49219002 C53.9729643,6.01649061 53.3599794,5.85821431 52.88428,6.13867 L49.49219,8.13867 C49.4598308,8.16408878 49.4291842,8.19161525 49.40045,8.22107 C48.9506121,7.62002829 48.4189567,7.08482526 47.82092,6.631 C47.83466,6.6108 47.85278,6.59523 47.86523,6.57375 L49.86623,3.10793 C50.045082,2.79844885 50.0451768,2.41704483 49.8664787,2.10747481 C49.6877806,1.79790478 49.3574574,1.60723325 49.0000129,1.60732715 C48.6425683,1.60742106 48.3123454,1.79826612 48.13381,2.10793 L46.13281,5.57375 C46.12231,5.59194 46.12281,5.61245 46.11359,5.631 C45.4383195,5.34726776 44.7270503,5.15829727 44,5.06946 L44,1 C44,0.44771525 43.5522847,3.38176876e-17 43,0 C42.4477153,-3.38176876e-17 42,0.44771525 42,1 L42,5.06891 C41.2770977,5.15798252 40.5698492,5.34589414 39.89807,5.62738 L37.86621,2.10791 C37.5899229,1.62982951 36.9784773,1.46610019 36.5002556,1.74214277 C36.0220339,2.01818535 35.857992,2.62954724 36.13379,3.10791 L38.16541,6.62691 C37.5855533,7.06768046 37.0688068,7.58580315 36.62958,8.16683 L33.10791,6.13379 C32.6295472,5.85799196 32.0181854,6.02203389 31.7421428,6.50025558 C31.4661002,6.97847727 31.6298295,7.58992295 32.10791,7.86621 Z"/></g></g></svg>