<svg xmlns="http://www.w3.org/2000/svg" data-name="Layer 1" viewBox="0 0 128 160" x="0px" y="0px"><title>101 Miscellaneous 26 final</title><circle cx="36" cy="29" r="3"/><path d="M2,128H20a2,2,0,0,0,2-2v-6a4,4,0,0,0-3-3.86V78a4,4,0,0,0-4-4H13V65a4,4,0,0,0,4-4V59h5V76a4,4,0,0,0,4,4H46a4,4,0,0,0,4-4V18a4,4,0,0,0-4-4H26a4,4,0,0,0-4,4V34H17V31a4,4,0,0,0-4-4V25.43A21.58,21.58,0,0,1,34.69,4H65.1A5.47,5.47,0,0,0,65,5V35a5,5,0,0,0,5,5h39a4,4,0,0,0,4-4V4h2a2,2,0,0,0,0-4H34.69A25.59,25.59,0,0,0,9,25.43V27a4,4,0,0,0-4,4v3a2,2,0,0,0,0,4V55a2,2,0,0,0,0,4v2a4,4,0,0,0,4,4v9H7a4,4,0,0,0-4,4v38.14A4,4,0,0,0,0,120v6A2,2,0,0,0,2,128ZM36,22a7,7,0,1,1-7,7A7,7,0,0,1,36,22Zm0,18a7,7,0,1,1-7,7A7,7,0,0,1,36,40Zm0,18a7,7,0,1,1-7,7A7,7,0,0,1,36,58ZM17,38h5V55H17ZM91,10a2,2,0,0,1,2-2h10a2,2,0,0,1,2,2V30a2,2,0,0,1-2,2H93a2,2,0,0,1-2-2ZM73,10a2,2,0,0,1,2-2H85a2,2,0,0,1,2,2V30a2,2,0,0,1-2,2H75a2,2,0,0,1-2-2ZM9,31h4V61H9ZM4,120H18v4H4Z"/><circle cx="36" cy="65" r="3"/><circle cx="36" cy="47" r="3"/><path d="M60,125h4a4,4,0,0,0,4-4v-4a4,4,0,0,0,4-4V103a4,4,0,0,0-4-4h-.37L60.38,86.91A6,6,0,0,0,55.24,84H41.76a6,6,0,0,0-5.14,2.91L29.37,99H29a4,4,0,0,0-4,4v10a4,4,0,0,0,4,4v4a4,4,0,0,0,4,4h4a4,4,0,0,0,4-4v-4H56v4A4,4,0,0,0,60,125Zm4-4H60v-4h4Zm.5-13a2,2,0,0,1-2,2h-4a2,2,0,0,1,0-4h4A2,2,0,0,1,64.5,108ZM37,121H33v-4h4Zm1.5-11h-4a2,2,0,0,1,0-4h4a2,2,0,0,1,0,4ZM34,99l6-10a2,2,0,0,1,1.71-1H55.24A2,2,0,0,1,57,89l6,10Z"/><path d="M124,99h-.37l-7.25-12.09A6,6,0,0,0,111.24,84H97.76a6,6,0,0,0-5.14,2.91L85.37,99H85a4,4,0,0,0-4,4v10a4,4,0,0,0,4,4v4a4,4,0,0,0,4,4h4a4,4,0,0,0,4-4v-4h15v4a4,4,0,0,0,4,4h4a4,4,0,0,0,4-4v-4a4,4,0,0,0,4-4V103A4,4,0,0,0,124,99ZM93,121H89v-4h4Zm1.5-11h-4a2,2,0,0,1,0-4h4a2,2,0,0,1,0,4ZM90,99l6-10a2,2,0,0,1,1.71-1h13.48A2,2,0,0,1,113,89l6,10Zm30,22h-4v-4h4Zm-1.5-11h-4a2,2,0,0,1,0-4h4a2,2,0,0,1,0,4Z"/><path d="M77,98a4,4,0,0,0,4-4V90h5.1l3.09-5.15A10.05,10.05,0,0,1,97.76,80h13.47c.26,0,.51,0,.76.05V76a4,4,0,0,0-4-4h-.37l-7.25-12.09A6,6,0,0,0,95.24,57H81.76a6,6,0,0,0-5.14,2.91L69.37,72H69a4,4,0,0,0-4,4V86a4,4,0,0,0,4,4v4a4,4,0,0,0,4,4Zm0-4H73V90h4Zm3-32a2,2,0,0,1,1.71-1H95.24A2,2,0,0,1,97,62l6,10H74ZM74.5,79h4a2,2,0,0,1,0,4h-4a2,2,0,0,1,0-4Z"/></svg>