<svg xmlns="http://www.w3.org/2000/svg" xmlns:xlink="http://www.w3.org/1999/xlink" viewBox="0 0 60 75" version="1.1" x="0px" y="0px"><title>012 - Wind Power</title><desc>Created with Sketch.</desc><g stroke="none" stroke-width="1" fill="none" fill-rule="evenodd"><g transform="translate(0.000000, -1.000000)" fill="#000000" fill-rule="nonzero"><path d="M59,59 L55,59 C54.9981923,57.3438951 53.6561049,56.0018077 52,56 L51,56 L51,41.81476 C51.3417102,41.6919243 51.6581638,41.5078211 51.93384,41.27148 L55.562,43.36621 C55.8714811,43.545062 56.2528852,43.5451568 56.5624552,43.3664587 C56.8720252,43.1877606 57.0626968,42.8574374 57.0626028,42.4999929 C57.0625089,42.1425483 56.8716639,41.8123254 56.562,41.63379 L52.94457,39.54523 C52.9798132,39.3655838 52.9983689,39.1830634 53,39 C52.993755,37.7338218 52.193626,36.6077363 51,36.18524 L51,32 C51,31.4477153 50.5522847,31 50,31 C49.4477153,31 49,31.4477153 49,32 L49,36.18524 C47.806374,36.6077363 47.006245,37.7338218 47,39 C47.0016278,39.1830631 47.0201801,39.3655834 47.05542,39.54523 L43.438,41.63379 C42.9599195,41.9100771 42.7961902,42.5215227 43.0722328,42.9997444 C43.3482754,43.4779661 43.9596372,43.642008 44.438,43.36621 L48.06617,41.27148 C48.3418432,41.5078201 48.6582933,41.6919232 49,41.81476 L49,56 L48,56 C46.3438951,56.0018077 45.0018077,57.3438951 45,59 L41.89911,59 C41.4227251,56.6727118 39.3755444,55.0012403 37,55 L37,34 C37,33.4477153 36.5522847,33 36,33 C35.4477153,33 35,33.4477153 35,34 L35,35 L33,35 L33,26.78 L40.64,32.39 C41.4261809,32.9749092 42.3801026,33.290545 43.36,33.29 C43.6760597,33.2913825 43.991305,33.2578458 44.3,33.19 C46.2462775,32.7759892 47.7031523,31.1535697 47.9061139,29.1741234 C48.1090756,27.1946771 47.011762,25.3103651 45.19,24.51 L34.88,20 C34.7763992,19.474269 34.5908006,18.9680911 34.33,18.5 C34.0601426,18.0394882 33.7154199,17.6271728 33.31,17.28 L34.56,6.04 C34.57,5.89 34.58,5.74 34.58,5.59 C34.5851998,3.89074121 33.6490658,2.32830833 32.1482664,1.53137121 C30.6474671,0.734434084 28.8287798,0.834033606 27.4239825,1.79009431 C26.0191852,2.74615502 25.2592697,4.40147123 25.45,6.09 L26.69,17.25 C25.9506805,17.9011958 25.4216097,18.7574551 25.17,19.71 C25.1476727,19.8056049 25.1309774,19.9024382 25.12,20 L14.81,24.52 C12.9870298,25.316976 11.8879838,27.2006079 12.0911512,29.179778 C12.2943186,31.1589481 13.7531311,32.7800086 15.7,33.19 C16.008695,33.2578458 16.3239403,33.2913825 16.64,33.29 C17.6181269,33.2894144 18.5707154,32.9777218 19.36,32.4 L27,26.78 L27,55 C24.6244556,55.0012403 22.5772749,56.6727118 22.10089,59 L15.06,59 C15.0586876,57.3436897 13.7163103,56.0013124 12.06,56 L11.062,56 L11.062,41.81531 C11.4043079,41.6928219 11.7212849,41.5086699 11.99724,41.27197 L15.6245,43.36621 C16.1028628,43.642008 16.7142246,43.4779661 16.9902672,42.9997444 C17.2663098,42.5215227 17.1025805,41.9100771 16.6245,41.63379 L13.00512,39.54413 C13.2885996,38.0959699 12.458639,36.6610596 11.062,36.18469 L11.062,32 C11.062,31.4477153 10.6142847,31 10.062,31 C9.50971525,31 9.062,31.4477153 9.062,32 L9.062,36.18463 C7.8673493,36.6064948 7.0662482,37.7330662 7.06,39 C7.06158581,39.1834323 7.08015848,39.3663235 7.11548,39.54633 L3.5,41.63379 C3.02191951,41.9100771 2.85819019,42.5215227 3.13423277,42.9997444 C3.41027535,43.4779661 4.02163724,43.642008 4.5,43.36621 L8.127,41.27216 C8.40307713,41.5085614 8.71994594,41.6926419 9.06206,41.81537 L9.06206,56 L8.06,56 C6.4051495,56.0048275 5.06482753,57.3451495 5.06,59 L1,59 C0.44771525,59 6.76353751e-17,59.4477153 0,60 C-6.76353751e-17,60.5522847 0.44771525,61 1,61 L59,61 C59.5522847,61 60,60.5522847 60,60 C60,59.4477153 59.5522847,59 59,59 Z M33,45 L35,45 L35,47 L33,47 L33,45 Z M33,49 L35,49 L35,51 L33,51 L33,49 Z M35,43 L33,43 L33,41 L35,41 L35,43 Z M33,55 L33,53 L35,53 L35,55 L33,55 Z M35,37 L35,39 L33,39 L33,37 L35,37 Z M27.1,20.22 C27.3082253,19.4523636 27.8114575,18.7981616 28.5,18.4 C28.957351,18.1400601 29.4739454,18.0023016 30,18 C30.2632748,17.9987479 30.5255557,18.0323737 30.78,18.1 C32.380312,18.5312381 33.3282466,20.177906 32.8975117,21.7783536 C32.4667767,23.3788011 30.8204068,24.3272533 29.219824,23.8970215 C27.6192411,23.4667897 26.6702714,21.820718 27.1,20.22 Z M47,59 C47.0007162,58.4480122 47.4480122,58.0007162 48,58 L52,58 C52.5519878,58.0007162 52.9992838,58.4480122 53,59 L47,59 Z"/></g></g></svg>