<?xml version="1.0" encoding="UTF-8" standalone="no"?>
<svg
   xmlns:dc="http://purl.org/dc/elements/1.1/"
   xmlns:cc="http://creativecommons.org/ns#"
   xmlns:rdf="http://www.w3.org/1999/02/22-rdf-syntax-ns#"
   xmlns:svg="http://www.w3.org/2000/svg"
   xmlns="http://www.w3.org/2000/svg"
   xmlns:sodipodi="http://sodipodi.sourceforge.net/DTD/sodipodi-0.dtd"
   xmlns:inkscape="http://www.inkscape.org/namespaces/inkscape"
   version="1.1"
   x="0px"
   y="0px"
   viewBox="0 0 357.54272 622.07616"
   enable-background="new 0 0 512 512"
   xml:space="preserve"
   id="svg841"
   sodipodi:docname="noun_wind_power_turbine.svg"
   inkscape:version="1.0beta1 (32d4812, 2019-09-19)"
   width="357.54272"
   height="622.07617">
  <style
   id="style849"></style>



  <metadata
   id="metadata847">
    <rdf:RDF>
      <cc:Work
   rdf:about="">
        <dc:format>image/svg+xml</dc:format>



        <dc:type
   rdf:resource="http://purl.org/dc/dcmitype/StillImage" />



        <dc:title />



      </cc:Work>



    </rdf:RDF>



  </metadata>



  <defs
   id="defs845" />



  <sodipodi:namedview
   pagecolor="#ffffff"
   bordercolor="#666666"
   inkscape:document-rotation="0"
   borderopacity="1"
   objecttolerance="10"
   gridtolerance="10"
   guidetolerance="10"
   inkscape:pageopacity="0"
   inkscape:pageshadow="2"
   inkscape:window-width="1600"
   inkscape:window-height="1209"
   id="namedview843"
   showgrid="false"
   inkscape:zoom="0.58683742"
   inkscape:cx="409.24619"
   inkscape:cy="553.51924"
   inkscape:window-x="0"
   inkscape:window-y="23"
   inkscape:window-maximized="0"
   inkscape:current-layer="svg841" />



  


  


  <path
   style="fill:#ffffff;stroke:#ffffff;stroke-width:1.06418"
   id="path859"
   sodipodi:type="arc"
   sodipodi:cx="121.28459"
   sodipodi:cy="205.95749"
   sodipodi:rx="23.698784"
   sodipodi:ry="22.844252"
   sodipodi:start="0"
   sodipodi:end="6.2642309"
   sodipodi:arc-type="arc"
   d="m 144.98338,205.95749 a 23.698784,22.844252 0 0 1 -23.58649,22.84399 23.698784,22.844252 0 0 1 -23.810018,-22.62749 23.698784,22.844252 0 0 1 23.360838,-23.05844 23.698784,22.844252 0 0 1 24.03141,22.40897"
   sodipodi:open="true" />



<rect
   y="229.54625"
   x="86.498283"
   height="141.0006"
   width="67.815147"
   id="rect843"
   style="fill:#ffffff;stroke:#ffffff;stroke-width:1.04477" />
<path
   d="m 239.79871,177.94354 c -32.982,0 -62.777,3.344 -84.151,8.718 -6.516,-10.781 -18.077,-18.155 -31.405,-18.905 -5.828,-21.437 -18.077,-49.779 -35.091999,-79.246993 C 56.620703,32.199547 19.028698,-6.9864581 5.1546983,1.0435417 -8.7193005,9.0435455 6.3736983,61.197547 38.903703,117.50854 c 16.546,28.687 34.42,52.904 49.810008,68.716 -3.750004,6.031 -5.921008,13.125 -5.921008,20.718 0,7.125 1.890002,13.781 5.203008,19.531 -15.218008,15.843 -32.812008,39.748 -49.091008,67.974 -32.5300047,56.312 -47.6230035,108.465 -33.7490047,116.465 13.8749997,8.03 51.4660047,-31.124 83.9960127,-87.435 16.498999,-28.594 28.498999,-56.1 34.528999,-77.317 13.578,-0.563 25.358,-8 31.967,-18.905 21.375,5.375 51.169,8.718 84.151,8.718 65.028,0 117.744,-13 117.744,-29.03 0,-16 -52.715,-29 -117.744,-29 z"
   id="path835"
   inkscape:connector-curvature="0"
   style="opacity:1;fill:#004600;fill-opacity:1;stop-opacity:1" />
<path
   sodipodi:nodetypes="ccccccc"
   d="m 140.43886,259.56541 c -10.85462,25.26901 -12.09457,29.53245 -31.10854,66.97678 -11.295387,18.72124 -14.744919,26.65111 -24.383163,40.577 l -3.875454,254.957 h 78.512007 l -4.21667,-369.99401 c -6.72363,4.84813 -11.33418,5.86424 -14.92818,7.48323 z"
   id="path837"
   inkscape:connector-curvature="0"
   style="opacity:1;fill:#004600;fill-opacity:1;stroke-width:1.19963;stop-opacity:1" />
</svg>
